<svg width="200" height="200" viewBox="0 0 200 200" fill="none" xmlns="http://www.w3.org/2000/svg">
<path d="M180.3 52.5L147.4 19.6C134.8 7 117.9 0 100 0C82.1 0 65.2 7 52.5 19.7L19.7 52.5C7 65.2 0 82.1 0 100C0 117.9 7 134.8 19.7 147.5L52.6 180.4C65.2 193 82.1 200 100 200C117.4 200 134 193.3 146.6 181.2L146.7 181.1L146.8 181L180.4 147.4C193 134.8 200 117.9 200 100C200 82.1 193 65.2 180.3 52.5Z" fill="black"/>
<path d="M123.998 157.9C117.798 163.9 109.298 167.6 99.8984 167.6C90.2984 167.6 81.6984 163.7 75.3984 157.4L91.5984 141.2C93.6984 143.3 96.6984 144.7 99.8984 144.7C103.198 144.7 106.098 143.4 108.198 141.2L141.098 108.3C143.198 106.2 144.598 103.2 144.598 100C144.598 96.7 143.298 93.8 141.098 91.7C138.998 89.6 135.998 88.2 132.798 88.2C129.498 88.2 126.598 89.5 124.498 91.7L91.5984 124.6C85.2984 130.9 76.5984 134.8 67.0984 134.8C57.4984 134.8 48.8984 130.9 42.5984 124.6C36.2984 118.3 32.3984 109.6 32.3984 100.1C32.3984 90.5 36.2984 81.9 42.5984 75.6L75.4984 42.7C81.7984 36.4 90.4984 32.5 99.9984 32.5C109.598 32.5 118.198 36.4 124.498 42.7L108.298 58.9C106.198 56.8 103.198 55.4 99.9984 55.4C96.6984 55.4 93.7984 56.7 91.6984 58.9L58.7984 91.8C56.6984 93.9 55.2984 96.9 55.2984 100.1C55.2984 103.4 56.5984 106.3 58.7984 108.4C60.8984 110.5 63.8984 111.9 67.0984 111.9C70.3984 111.9 73.2984 110.6 75.3984 108.4L108.298 75.5C114.598 69.2 123.298 65.3 132.798 65.3C142.298 65.3 150.998 69.2 157.298 75.5C163.598 81.8 167.498 90.5 167.498 100C167.498 109.6 163.598 118.2 157.298 124.5L123.998 157.9Z" fill="white"/>
</svg>
