<?xml version="1.0" ?><svg enable-background="new 0 0 1080 1080" id="katman_1" version="1.1" viewBox="0 0 1080 1080" xml:space="preserve" xmlns="http://www.w3.org/2000/svg" xmlns:xlink="http://www.w3.org/1999/xlink"><g><path d="M189.9,892c-24.5-24-45.8-50.6-64.4-79.2c-35.4-54.3-59.3-113.2-71.6-176.9c-7.5-38.8-10.5-77.9-8.5-117.2   c4.9-99.8,36.4-190.7,95.9-271.1c70.1-94.7,162.6-157,276.5-187.3c26-6.9,52.5-11.1,79.4-13.5c27.5-2.5,54.9-2.8,82.3-0.6   c67.7,5.2,131.7,23.4,191.9,54.9c44.9,23.5,85.2,53.2,121,88.9c0.6,0.6,1,1.3,1.6,1.9c-0.4,2.2-2.1,3.3-3.5,4.7   c-45,45-90,90-135,135c-1.7,1.7-3.2,3.9-6,4.2c-5.3-1.9-9-6.1-13.3-9.4c-23-17.9-48.1-32.3-74.6-44.3   c-19.1-8.7-38.2-17.3-56.6-27.6c-20.7-11.6-36.9-28.3-52.8-45.4c-12.7-13.7-24.9-27.7-37.1-42.7c-1.4,4-1.3,7.6-1.9,11   c-3.1,19.3-8.2,37.8-19.7,54c-6.3,8.9-14.3,16.2-23,22.7c-16.1,12.1-33.2,22.8-51.1,32.1c-26.6,13.8-53.6,27-77.3,45.7   c-42.2,33.3-76.6,73-100,121.7c-15.2,31.7-24.5,65.1-28.7,100c-2.1,17.5-2.9,35.2-2.1,52.8c1.3,26.5,5.4,52.6,13,78.2   c8.9,30.1,22.1,58.2,39.3,84.4c5.3,8.1,10.9,16,17.1,23.4c1.5,1.8,3.1,3.5,3.6,5.9c-0.3,2.4-2.3,3.6-3.7,5.1   c-11.2,11.2-22,22.8-33.6,33.5c-18.2,16.9-35.3,34.9-53.1,52.2C192.7,890.4,191.7,891.8,189.9,892z" fill="#0193F3"/><path d="M1036.8,536.1c0.1,11.2,0.9,22.4,0,33.5c-1.5,18.7-3.4,37.4-6.6,55.9c-4.7,26.9-11.3,53.2-20.2,78.9   c-10.2,29.3-23.3,57.2-38.6,84.2c-11.8,20.8-25.4,40.4-39.9,59.3c-8.4,11-17.3,21.5-27.1,31.3c-8.2,8.2-15.8,16.8-24.4,24.6   c-16.2,14.8-33.1,28.8-50.9,41.6c-25.2,18.2-52.1,33.5-80.2,46.6c-28.5,13.2-58.1,23.5-88.6,31c-19.1,4.7-38.4,8.2-57.9,10.8   c-8.9,1.2-18,1.7-27,2.4c-20.3,1.6-40.6,1-60.8,0.6c-15.2-0.3-30.3-2.4-45.4-4.5c-20.3-2.9-40.2-7.2-60-12.3   c-3.1-0.8-6.3-1.4-9.1-3.2c-3.6-3.2-5.1-7.8-7.3-11.8c-10.1-19.1-20.2-38.3-30.3-57.4c-18.2-34.5-36.3-69-54.6-103.4   c-6.2-11.6-12.2-23.3-18.4-34.9c-0.8-1.4-1.8-3-0.3-4.6c2-0.7,3.1,0.7,4.2,2c24.3,26.7,52,49.2,83.4,67   c37.4,21.1,77.3,34.8,119.8,41.2c22.5,3.3,45.2,3.9,67.8,2.7c44.5-2.4,87.2-12.9,127.5-32.3c26.2-12.5,50.3-28.1,72.3-47   c27.5-23.6,49.7-51.5,67.2-83.1c20.3-36.5,32.1-75.7,36.9-117c2.1-17.7,3.2-35.5,2.2-53.3c-2.1-39.5-9.1-78.1-24.1-114.9   c-13.9-34-32.5-65.3-56.8-93c-8.8-10-17.3-20.2-27.6-28.9c-0.8-0.7-1.4-1.5-1.6-2.5c-0.1-0.5,0-1,0.2-1.5c2-1.7,3.4,0,4.8,1   c29.7,20.6,59.3,41.4,88.9,62.2c25.1,17.6,50.2,35.1,75.3,52.8c31.9,22.4,63.9,44.6,95.8,67.1   C1029.4,529.9,1034,531.9,1036.8,536.1z" fill="#044E7E"/><path d="M1036.8,536.1c-10.7-7.3-21.4-14.5-32-21.9c-18.2-12.7-36.4-25.6-54.6-38.4c-36.5-25.5-72.9-51-109.4-76.6   c-25.8-18.1-51.7-36.2-77.5-54.3c-0.7-0.5-1.5-0.6-2.3-0.9c-1.3-0.1-2.4-0.8-3.6-1.2c-2.7-1.9-5.6-3.5-7.7-6.3   c-0.2-0.4-0.3-0.9-0.2-1.3c2.1-0.8,3.4-2.7,4.9-4.2c45.1-45,90.1-90,135.2-135c1.4-1.4,2.9-2.7,4.4-4   c22.3,22.1,41.9,46.5,59.4,72.5c33.8,50.4,57.5,105.3,71.2,164.4c6.1,26.6,10.1,53.5,11.5,80.8   C1036.6,518.4,1037.2,527.2,1036.8,536.1z" fill="#0472B9"/><path d="M289.1,804.9c3.3,6.7,6.5,13.4,10,20c7.6,14.4,15.4,28.7,23,43.1c17.7,33.5,35.3,67.1,52.9,100.7   c7.7,14.6,15.5,29,23.2,43.6c0.8,1.5,1.3,3,2,4.6c-51.5-14.8-99-37.9-142.9-68.5c-24.1-16.7-46.7-35.3-67.2-56.3   c17.2-17.6,34.5-35.2,52.4-52.1c12.6-11.9,24.6-24.4,36.9-36.7c1.5-1.5,3.2-2.9,4.8-4.4c0.4-0.3,0.8-0.3,1.3-0.2   C287.4,800.3,289.1,802,289.1,804.9z" fill="#0472B9"/><path d="M284.9,799.1c-0.3,0-0.6,0-0.9-0.2c-15.4-19.5-29.4-39.9-40.4-62.2c-17.1-34.6-27.7-71-31.7-109.4   C196.6,482.4,275.2,360.6,390.3,300c25.2-13.3,50.3-26.5,74-42.5c28.9-19.6,43.2-46.9,47.7-80.5c0.6-4.3,1.1-8.5,1.7-12.9   c2.4,0.7,3.2,2.7,4.4,4.1c14.2,16.8,28.8,33.2,43.7,49.4c21.1,23.1,46.9,39.1,75.1,51.8c27.8,12.5,55.7,24.8,80.9,42.2   c10.9,7.4,21.1,15.6,31.6,23.6c0.1,0.3,0.2,0.6,0.4,0.9c0.4,3.1-2.2,4.3-3.9,6c-37.1,37.2-74.2,74.3-111.3,111.4   c-11.2,11.2-22.2,22.6-33.6,33.5c-36.8,35-72.1,71.6-108.3,107.3c-1.3,1.3-2.5,2.7-4.2,3.5c-1,0.4-2,0.5-3,0.6   c-20.8-1.1-41.1,1.3-60,10.2c-37.5,17.6-62.9,45.4-69.7,87.5c-1.6,10-1.1,20.2,0.2,30.4c0,0.8,0,1.5-0.2,2.3   c-0.5,2.2-2.2,3.7-3.7,5.2c-20.7,20.7-41.4,41.4-62.1,62.1C288.7,797.4,287.6,799.6,284.9,799.1z" fill="#FEFEFE"/><path d="M489,596.7c33.3-33.3,66.1-67.1,99.9-99.9c54-52.4,106.4-106.3,159.9-159.2c0.5-0.5,0.8-1.1,1.2-1.6   c2.6,2,5.2,4,7.8,6c1.5,0.5,2.4,1.7,3.2,2.9c19,18,36.5,37.4,51.4,59c28.4,41.2,46.7,86.5,54.7,135.9c5.2,32.4,6.4,64.9,2.7,97.5   c-7.4,64-31,121.3-73.4,170.2c-44.8,51.6-101.1,84.4-167.1,101.3c-35,9-70.6,12-106.4,9.7c-70.4-4.6-133.6-29-189.2-72.6   c-15.1-11.8-28.9-25.1-41.8-39.3c-0.8-0.9-1.5-1.8-2.8-1.9c-1.4-1.9-2.8-3.9-4.1-5.8c1.4-1.2,2.8-2.3,4.1-3.6   c20.8-20.8,41.6-41.6,62.4-62.5c1.3-1.3,2.4-2.7,3.6-4.1c2.6,0.4,2.2,2.7,2.6,4.3c7,31.4,34.2,52.7,65.8,56.5   c7.9,0.9,15.9,1.6,23.9,2c22.5,1.2,43.6-4.4,64-13.2c27.8-12,53.5-27.8,79.3-43.4c16-9.6,32-19.3,49.3-26.4   c5.7-2.3,11.5-4.3,17.7-5c10.7-1.1,19.6,3.2,27.9,9c7.1,4.9,13.9,10.4,20,16.6c11.6,11.7,23.2,23.5,35,35   c6.8,6.6,13.7,13.1,21.7,18.4c13.8,9.2,29.4,7.8,41.5-3.8c17.9-17.2,29.5-38,36.1-61.8c4.3-15.5,7.2-31.3,7.5-47.2   c0.3-16.9-3.3-33.3-14.3-46.9c-10.3-12.7-24.5-16.6-41.1-12.2c-14.2,3.8-26.2,12.3-38.4,20.1c-17.9,11.5-35,24.4-53.4,35.2   c-8.6,5.1-17.5,9.6-27,12.8c-9.1,3-18,2.6-26.9-0.7c-15.5-5.8-28.8-15.3-42.2-24.6c-19.8-13.8-39.3-28.2-61-39   c-15.9-7.9-32.5-13.7-50.2-16.2C491.5,598.1,489.8,598.3,489,596.7z" fill="#DCDCDC"/><path d="M761,345c-1.4-0.6-2.4-1.6-3.2-2.9c1.5-0.2,2.6,0.5,3.2,1.9C761,344.3,761,344.6,761,345z" fill="#0D5787"/><path d="M489,596.7c24,2.1,45.6,11.3,66.4,22.9c20.9,11.7,39.9,26.4,59.8,39.8c8,5.4,16.2,10.4,24.9,14.7   c13.8,6.8,27.3,6.8,41.2,0.4c17.6-8.1,33.5-19.1,49.5-29.9c16.3-11,32.2-22.4,49.9-31.1c10-4.9,20.3-7.5,31.4-5.1   c16,3.5,25.2,14.4,31.1,29c7,17.6,6.4,35.8,3.7,54.1c-2,13.1-5.1,26-9.6,38.6c-6.9,19.3-17.9,35.9-32.6,50.1   c-10,9.7-29.1,15.1-44.6,2.6c-11.1-8.9-21.2-18.8-31.2-28.8c-13.6-13.7-26.9-27.7-42.5-39.4c-13.6-10.3-27.7-12.3-43.5-5.8   c-18.3,7.5-35.1,17.5-51.9,27.6c-25.1,15-50.1,30.2-76.8,42.4c-32.6,14.9-66.3,18.2-100.8,10.1c-30.8-7.2-50.7-26.5-57.5-58.1   c-0.1-0.6-0.5-1.2-0.7-1.8c0-0.6,0-1.3,0.1-1.9c0.9-2.2,2.5-3.9,4.2-5.5c15.8-15.7,31.1-31.9,47.4-47.2   c25.3-23.8,49.3-49,74.1-73.3c1.6-1.5,3.1-3.1,5.2-3.8C487,597.1,488,596.9,489,596.7z" fill="#0472B9"/><path d="M486,597.2c-24,24.1-47.6,48.5-72.1,72.1c-18.5,17.8-36.3,36.2-54.7,54c-1.3,1.3-2.7,2.5-4.1,3.7   c-4.9-30.8,2.3-58.6,21.9-82.6C405.1,610,441.6,594.3,486,597.2z" fill="#0193F3"/><path d="M598.6,883.1c-25.3,0.1-47-2.1-67.5-11c-7.8-3.4-15.1-7.7-21.4-13.5c-4.4-4-5.3-10.3-2.4-14.3   c3.9-5.4,13.3-8.5,17.7-5.2c17.5,13.6,38,18.4,59.5,20.2c26.3,2.1,52.5,1.2,78.2-5.5c13.7-3.6,26.9-8.5,38.7-16.6   c2.8-1.9,5.5-4.9,9.3-1.9c2.7,2.2,3.3,8.6,1.3,12.1c-1.5,2.7-3.8,4.6-6.3,6.3c-23.1,15.3-47.9,25.6-75.8,27.6   C618.4,882.1,607,883.2,598.6,883.1z" fill="#0472B9"/><path d="M697,792.9c0.1,5.4-5.6,11.3-10.2,11.3c-1.8,0-2.8-1-3.6-2.3c-1.4-2.3-2.9-4.5-4-6.9   c-5.9-13.5-16.9-18.2-30.8-18.9c-18.4-1-34.4,4.1-47.9,16.9c-4,3.8-8.4,7-12.9,10.2c-2.6,1.9-5.6,4.3-9,1.3   c-3.3-3-4.8-6.7-3.1-11.2c1.1-2.9,2.9-5.3,5.1-7.3c7.9-7.4,16.1-14.5,25.2-20.3c10.2-6.5,21.3-9.9,33.5-9.7c9.5,0.1,19,0,28.3,2   c8.9,1.9,15.8,6.8,20.4,14.7C692,779.2,695.2,786.1,697,792.9z" fill="#0472B9"/></g></svg>