<svg width="54" height="32" viewBox="0 0 54 32" fill="none" xmlns="http://www.w3.org/2000/svg">
<g clip-path="url(#clip0_337_350)">
<path d="M3.88093 11.9999C3.76359 11.9999 3.66759 11.9626 3.59293 11.8879C3.51826 11.8132 3.48093 11.7172 3.48093 11.5999V1.19989C3.48093 1.08256 3.51826 0.98656 3.59293 0.911894C3.66759 0.837227 3.76359 0.799893 3.88093 0.799893H8.12093C9.45426 0.799893 10.505 1.10922 11.273 1.72789C12.041 2.33589 12.425 3.21589 12.425 4.36789C12.425 5.14656 12.2383 5.79722 11.865 6.31989C11.4916 6.84256 10.9903 7.23189 10.361 7.48789L12.617 11.4879C12.649 11.5519 12.665 11.6106 12.665 11.6639C12.665 11.7492 12.633 11.8292 12.569 11.9039C12.505 11.9679 12.425 11.9999 12.329 11.9999H10.553C10.361 11.9999 10.217 11.9519 10.121 11.8559C10.025 11.7492 9.95559 11.6532 9.91293 11.5679L7.96093 7.90389H6.02493V11.5999C6.02493 11.7172 5.98759 11.8132 5.91293 11.8879C5.83826 11.9626 5.74226 11.9999 5.62493 11.9999H3.88093ZM6.02493 5.87189H8.07293C8.65959 5.87189 9.09159 5.73856 9.36893 5.47189C9.65693 5.20522 9.80093 4.83189 9.80093 4.35189C9.80093 3.87189 9.66226 3.49322 9.38493 3.21589C9.10759 2.93856 8.67026 2.79989 8.07293 2.79989H6.02493V5.87189ZM17.8139 12.1599C16.5872 12.1599 15.6112 11.8186 14.8859 11.1359C14.1712 10.4532 13.7925 9.46122 13.7499 8.15989C13.7499 8.07456 13.7499 7.96256 13.7499 7.82389C13.7499 7.67456 13.7499 7.55722 13.7499 7.47189C13.7925 6.65056 13.9792 5.94656 14.3099 5.35989C14.6405 4.76256 15.1045 4.30922 15.7019 3.99989C16.2992 3.67989 16.9979 3.51989 17.7978 3.51989C18.6939 3.51989 19.4404 3.70656 20.0378 4.07989C20.6458 4.44256 21.0992 4.94389 21.3979 5.58389C21.7072 6.21322 21.8618 6.93856 21.8618 7.75989V8.12789C21.8618 8.23456 21.8192 8.32522 21.7339 8.39989C21.6592 8.47456 21.5684 8.51189 21.4618 8.51189H16.2298C16.2298 8.52256 16.2298 8.54389 16.2298 8.57589C16.2298 8.59722 16.2298 8.61856 16.2298 8.63989C16.2404 8.98122 16.3045 9.29589 16.4219 9.58389C16.5499 9.86122 16.7259 10.0852 16.9499 10.2559C17.1845 10.4266 17.4618 10.5119 17.7818 10.5119C18.0484 10.5119 18.2671 10.4746 18.4378 10.3999C18.6084 10.3252 18.7471 10.2346 18.8538 10.1279C18.9711 10.0212 19.0564 9.93056 19.1098 9.85589C19.2058 9.74922 19.2804 9.68522 19.3338 9.66389C19.3978 9.63189 19.4938 9.61589 19.6218 9.61589H21.2859C21.3925 9.61589 21.4778 9.64789 21.5417 9.71189C21.6164 9.76522 21.6484 9.84522 21.6378 9.95189C21.6271 10.1226 21.5365 10.3359 21.3659 10.5919C21.2059 10.8372 20.9658 11.0826 20.6458 11.3279C20.3258 11.5626 19.9259 11.7599 19.4459 11.9199C18.9765 12.0799 18.4325 12.1599 17.8139 12.1599ZM16.2298 7.05589H19.3659V7.02389C19.3659 6.63989 19.3018 6.30922 19.1738 6.03189C19.0564 5.74389 18.8804 5.51989 18.6458 5.35989C18.4111 5.19989 18.1285 5.11989 17.7978 5.11989C17.4672 5.11989 17.1845 5.19989 16.9499 5.35989C16.7152 5.51989 16.5338 5.74389 16.4058 6.03189C16.2884 6.30922 16.2298 6.63989 16.2298 7.02389V7.05589ZM26.5492 12.1599C26.0159 12.1599 25.5411 12.0746 25.1251 11.9039C24.7091 11.7226 24.3571 11.4666 24.0691 11.1359C23.7811 10.7946 23.5625 10.3946 23.4131 9.93589C23.2638 9.46656 23.1731 8.94922 23.1411 8.38389C23.1305 8.18122 23.1251 7.99989 23.1251 7.83989C23.1251 7.66922 23.1305 7.48789 23.1411 7.29589C23.1625 6.74122 23.2479 6.23456 23.3972 5.77589C23.5572 5.31722 23.7759 4.92256 24.0532 4.59189C24.3412 4.25056 24.6931 3.98922 25.1091 3.80789C25.5358 3.61589 26.0159 3.51989 26.5492 3.51989C27.1039 3.51989 27.5786 3.61589 27.9732 3.80789C28.3679 3.98922 28.6932 4.22922 28.9492 4.52789V1.03989C28.9492 0.92256 28.9865 0.82656 29.0611 0.751894C29.1358 0.677227 29.2318 0.639893 29.3491 0.639893H30.9972C31.1039 0.639893 31.1945 0.677227 31.2691 0.751894C31.3438 0.82656 31.3811 0.92256 31.3811 1.03989V11.5999C31.3811 11.7172 31.3438 11.8132 31.2691 11.8879C31.1945 11.9626 31.1039 11.9999 30.9972 11.9999H29.4611C29.3545 11.9999 29.2638 11.9626 29.1891 11.8879C29.1145 11.8132 29.0772 11.7172 29.0772 11.5999V11.0559C28.8106 11.3759 28.4745 11.6426 28.0691 11.8559C27.6638 12.0586 27.1572 12.1599 26.5492 12.1599ZM27.2852 10.2399C27.6799 10.2399 27.9945 10.1492 28.2291 9.96789C28.4745 9.78656 28.6505 9.55722 28.7571 9.27989C28.8745 9.00256 28.9386 8.70389 28.9492 8.38389C28.9706 8.18122 28.9811 7.97856 28.9811 7.77589C28.9811 7.57322 28.9706 7.37589 28.9492 7.18389C28.9386 6.88522 28.8745 6.60789 28.7571 6.35189C28.6398 6.08522 28.4586 5.86656 28.2132 5.69589C27.9786 5.52522 27.6692 5.43989 27.2852 5.43989C26.8799 5.43989 26.5598 5.53056 26.3251 5.71189C26.0905 5.88256 25.9199 6.11189 25.8132 6.39989C25.7172 6.68789 25.6585 7.00256 25.6371 7.34389C25.6051 7.67456 25.6051 8.00522 25.6371 8.33589C25.6585 8.67722 25.7172 8.99189 25.8132 9.27989C25.9199 9.56789 26.0905 9.80256 26.3251 9.98389C26.5598 10.1546 26.8799 10.2399 27.2852 10.2399ZM36.4703 12.1599C35.8516 12.1599 35.3023 12.0212 34.8223 11.7439C34.3529 11.4559 33.9849 11.0452 33.7183 10.5119C33.4623 9.96789 33.3344 9.31189 33.3344 8.54389V4.07989C33.3344 3.96256 33.3717 3.86656 33.4464 3.79189C33.521 3.71722 33.6116 3.67989 33.7183 3.67989H35.4143C35.5316 3.67989 35.6277 3.71722 35.7024 3.79189C35.777 3.86656 35.8144 3.96256 35.8144 4.07989V8.44789C35.8144 9.64256 36.337 10.2399 37.3824 10.2399C37.8837 10.2399 38.2783 10.0852 38.5663 9.77589C38.8649 9.45589 39.0144 9.01322 39.0144 8.44789V4.07989C39.0144 3.96256 39.0517 3.86656 39.1264 3.79189C39.201 3.71722 39.2969 3.67989 39.4143 3.67989H41.1103C41.2169 3.67989 41.3077 3.71722 41.3824 3.79189C41.457 3.86656 41.4944 3.96256 41.4944 4.07989V11.5999C41.4944 11.7172 41.457 11.8132 41.3824 11.8879C41.3077 11.9626 41.2169 11.9999 41.1103 11.9999H39.5424C39.425 11.9999 39.3289 11.9626 39.2543 11.8879C39.1796 11.8132 39.1423 11.7172 39.1423 11.5999V10.9759C38.8649 11.3599 38.5077 11.6532 38.0704 11.8559C37.633 12.0586 37.0996 12.1599 36.4703 12.1599ZM43.156 11.9999C43.06 11.9999 42.9748 11.9679 42.9001 11.9039C42.8361 11.8292 42.8041 11.7439 42.8041 11.6479C42.8041 11.6159 42.8093 11.5786 42.82 11.5359C42.8413 11.4826 42.8681 11.4346 42.9001 11.3919L45.604 7.72789L43.1241 4.28789C43.0921 4.24522 43.0653 4.20256 43.044 4.15989C43.0333 4.11722 43.028 4.07456 43.028 4.03189C43.028 3.93589 43.0601 3.85589 43.1241 3.79189C43.1988 3.71722 43.2841 3.67989 43.3801 3.67989H45.044C45.172 3.67989 45.2681 3.71189 45.3321 3.77589C45.4068 3.83989 45.4601 3.89856 45.4921 3.95189L47.14 6.19189L48.788 3.96789C48.8307 3.91456 48.8841 3.85589 48.9481 3.79189C49.0121 3.71722 49.1133 3.67989 49.252 3.67989H50.836C50.932 3.67989 51.012 3.71722 51.076 3.79189C51.1507 3.85589 51.188 3.93589 51.188 4.03189C51.188 4.07456 51.1828 4.11722 51.1721 4.15989C51.1614 4.20256 51.1347 4.24522 51.092 4.28789L48.564 7.74389L51.3 11.3919C51.332 11.4346 51.3533 11.4772 51.364 11.5199C51.3853 11.5626 51.396 11.6052 51.396 11.6479C51.396 11.7439 51.3587 11.8292 51.284 11.9039C51.22 11.9679 51.14 11.9999 51.044 11.9999H49.3C49.1827 11.9999 49.092 11.9732 49.028 11.9199C48.964 11.8559 48.9107 11.7972 48.868 11.7439L47.092 9.37589L45.284 11.7439C45.252 11.7866 45.204 11.8399 45.14 11.9039C45.076 11.9679 44.9801 11.9999 44.8521 11.9999H43.156ZM4.05586 30.9999C3.93853 30.9999 3.84253 30.9626 3.76786 30.8879C3.6932 30.8132 3.65586 30.7172 3.65586 30.5999V22.0239H0.743863C0.637196 22.0239 0.546529 21.9866 0.471863 21.9119C0.397196 21.8372 0.359863 21.7466 0.359863 21.6399V20.1999C0.359863 20.0826 0.397196 19.9866 0.471863 19.9119C0.546529 19.8372 0.637196 19.7999 0.743863 19.7999H9.12786C9.2452 19.7999 9.3412 19.8372 9.41586 19.9119C9.49053 19.9866 9.52786 20.0826 9.52786 20.1999V21.6399C9.52786 21.7466 9.49053 21.8372 9.41586 21.9119C9.3412 21.9866 9.2452 22.0239 9.12786 22.0239H6.23186V30.5999C6.23186 30.7172 6.19453 30.8132 6.11986 30.8879C6.0452 30.9626 5.9492 30.9999 5.83186 30.9999H4.05586ZM13.2614 31.1599C12.3761 31.1599 11.6347 31.0159 11.0374 30.7279C10.4401 30.4292 9.98136 30.0079 9.66136 29.4639C9.35203 28.9199 9.18136 28.2852 9.14936 27.5599C9.1387 27.3466 9.13336 27.1066 9.13336 26.8399C9.13336 26.5626 9.1387 26.3226 9.14936 26.1199C9.18136 25.3839 9.3627 24.7492 9.69336 24.2159C10.0241 23.6719 10.4881 23.2559 11.0854 22.9679C11.6827 22.6692 12.4081 22.5199 13.2614 22.5199C14.1041 22.5199 14.8241 22.6692 15.4214 22.9679C16.0187 23.2559 16.4826 23.6719 16.8133 24.2159C17.144 24.7492 17.3253 25.3839 17.3573 26.1199C17.3786 26.3226 17.3893 26.5626 17.3893 26.8399C17.3893 27.1066 17.3786 27.3466 17.3573 27.5599C17.3253 28.2852 17.1493 28.9199 16.8293 29.4639C16.52 30.0079 16.0667 30.4292 15.4694 30.7279C14.8721 31.0159 14.1361 31.1599 13.2614 31.1599ZM13.2614 29.3999C13.7841 29.3999 14.1787 29.2399 14.4454 28.9199C14.7121 28.5892 14.8561 28.1092 14.8774 27.4799C14.8881 27.3199 14.8934 27.1066 14.8934 26.8399C14.8934 26.5732 14.8881 26.3599 14.8774 26.1999C14.8561 25.5812 14.7121 25.1066 14.4454 24.7759C14.1787 24.4452 13.7841 24.2799 13.2614 24.2799C12.7387 24.2799 12.3387 24.4452 12.0614 24.7759C11.7947 25.1066 11.6507 25.5812 11.6294 26.1999C11.6187 26.3599 11.6134 26.5732 11.6134 26.8399C11.6134 27.1066 11.6187 27.3199 11.6294 27.4799C11.6507 28.1092 11.7947 28.5892 12.0614 28.9199C12.3387 29.2399 12.7387 29.3999 13.2614 29.3999ZM22.8708 31.1599C21.9855 31.1599 21.244 31.0159 20.6467 30.7279C20.0494 30.4292 19.5908 30.0079 19.2708 29.4639C18.9615 28.9199 18.7907 28.2852 18.7587 27.5599C18.748 27.3466 18.7428 27.1066 18.7428 26.8399C18.7428 26.5626 18.748 26.3226 18.7587 26.1199C18.7907 25.3839 18.972 24.7492 19.3027 24.2159C19.6334 23.6719 20.0974 23.2559 20.6947 22.9679C21.292 22.6692 22.0175 22.5199 22.8708 22.5199C23.7135 22.5199 24.4335 22.6692 25.0308 22.9679C25.6281 23.2559 26.0921 23.6719 26.4228 24.2159C26.7535 24.7492 26.9347 25.3839 26.9667 26.1199C26.988 26.3226 26.9987 26.5626 26.9987 26.8399C26.9987 27.1066 26.988 27.3466 26.9667 27.5599C26.9347 28.2852 26.7587 28.9199 26.4387 29.4639C26.1294 30.0079 25.676 30.4292 25.0787 30.7279C24.4814 31.0159 23.7455 31.1599 22.8708 31.1599ZM22.8708 29.3999C23.3935 29.3999 23.7881 29.2399 24.0548 28.9199C24.3215 28.5892 24.4654 28.1092 24.4867 27.4799C24.4974 27.3199 24.5028 27.1066 24.5028 26.8399C24.5028 26.5732 24.4974 26.3599 24.4867 26.1999C24.4654 25.5812 24.3215 25.1066 24.0548 24.7759C23.7881 24.4452 23.3935 24.2799 22.8708 24.2799C22.3481 24.2799 21.948 24.4452 21.6707 24.7759C21.404 25.1066 21.2601 25.5812 21.2388 26.1999C21.2281 26.3599 21.2227 26.5732 21.2227 26.8399C21.2227 27.1066 21.2281 27.3199 21.2388 27.4799C21.2601 28.1092 21.404 28.5892 21.6707 28.9199C21.948 29.2399 22.3481 29.3999 22.8708 29.3999ZM29.0721 30.9999C28.9547 30.9999 28.8587 30.9626 28.7841 30.8879C28.7094 30.8132 28.6721 30.7172 28.6721 30.5999V20.0399C28.6721 19.9226 28.7094 19.8266 28.7841 19.7519C28.8587 19.6772 28.9547 19.6399 29.0721 19.6399H30.6721C30.7787 19.6399 30.8694 19.6772 30.9441 19.7519C31.0187 19.8266 31.0562 19.9226 31.0562 20.0399V30.5999C31.0562 30.7172 31.0187 30.8132 30.9441 30.8879C30.8694 30.9626 30.7787 30.9999 30.6721 30.9999H29.0721ZM33.6544 30.9999C33.5371 30.9999 33.441 30.9626 33.3663 30.8879C33.2916 30.8132 33.2543 30.7172 33.2543 30.5999V20.1999C33.2543 20.0826 33.2916 19.9866 33.3663 19.9119C33.441 19.8372 33.5371 19.7999 33.6544 19.7999H35.3503C35.4676 19.7999 35.5637 19.8372 35.6384 19.9119C35.7131 19.9866 35.7504 20.0826 35.7504 20.1999V23.8479L39.0463 20.1039C39.089 20.0399 39.1583 19.9759 39.2543 19.9119C39.361 19.8372 39.4996 19.7999 39.6703 19.7999H41.6063C41.7023 19.7999 41.7823 19.8372 41.8463 19.9119C41.9103 19.9759 41.9423 20.0506 41.9423 20.1359C41.9423 20.2106 41.921 20.2746 41.8783 20.3279L37.7663 25.1599L42.1824 30.4719C42.2251 30.5146 42.2463 30.5786 42.2463 30.6639C42.2463 30.7492 42.2143 30.8292 42.1503 30.9039C42.0863 30.9679 42.0064 30.9999 41.9104 30.9999H39.9104C39.7184 30.9999 39.5743 30.9572 39.4783 30.8719C39.3823 30.7866 39.3184 30.7279 39.2864 30.6959L35.7504 26.5999V30.5999C35.7504 30.7172 35.7131 30.8132 35.6384 30.8879C35.5637 30.9626 35.4676 30.9999 35.3503 30.9999H33.6544ZM43.8218 30.9999C43.7151 30.9999 43.6245 30.9626 43.5498 30.8879C43.4751 30.8132 43.4377 30.7172 43.4377 30.5999V23.0799C43.4377 22.9626 43.4751 22.8666 43.5498 22.7919C43.6245 22.7172 43.7151 22.6799 43.8218 22.6799H45.4217C45.539 22.6799 45.6351 22.7172 45.7098 22.7919C45.7845 22.8666 45.8218 22.9626 45.8218 23.0799V30.5999C45.8218 30.7172 45.7845 30.8132 45.7098 30.8879C45.6351 30.9626 45.539 30.9999 45.4217 30.9999H43.8218ZM43.7738 21.3999C43.6671 21.3999 43.5765 21.3626 43.5018 21.2879C43.4271 21.2132 43.3898 21.1172 43.3898 20.9999V19.7199C43.3898 19.6026 43.4271 19.5066 43.5018 19.4319C43.5765 19.3466 43.6671 19.3039 43.7738 19.3039H45.4538C45.5711 19.3039 45.667 19.3466 45.7417 19.4319C45.827 19.5066 45.8698 19.6026 45.8698 19.7199V20.9999C45.8698 21.1172 45.827 21.2132 45.7417 21.2879C45.667 21.3626 45.5711 21.3999 45.4538 21.3999H43.7738ZM51.8284 30.9999C51.1671 30.9999 50.6017 30.8932 50.1324 30.6799C49.6631 30.4559 49.3056 30.1146 49.0603 29.6559C48.8256 29.1972 48.7084 28.6212 48.7084 27.9279V24.5679H47.4604C47.3431 24.5679 47.247 24.5306 47.1723 24.4559C47.0976 24.3812 47.0603 24.2852 47.0603 24.1679V23.0799C47.0603 22.9626 47.0976 22.8666 47.1723 22.7919C47.247 22.7172 47.3431 22.6799 47.4604 22.6799H48.7084V20.0399C48.7084 19.9226 48.7457 19.8266 48.8204 19.7519C48.9057 19.6772 49.0016 19.6399 49.1083 19.6399H50.6763C50.7936 19.6399 50.8896 19.6772 50.9643 19.7519C51.039 19.8266 51.0764 19.9226 51.0764 20.0399V22.6799H53.0764C53.1831 22.6799 53.2737 22.7172 53.3484 22.7919C53.4231 22.8666 53.4604 22.9626 53.4604 23.0799V24.1679C53.4604 24.2852 53.4231 24.3812 53.3484 24.4559C53.2737 24.5306 53.1831 24.5679 53.0764 24.5679H51.0764V27.7359C51.0764 28.1412 51.1457 28.4612 51.2844 28.6959C51.4337 28.9199 51.6896 29.0319 52.0523 29.0319H53.2203C53.327 29.0319 53.4176 29.0692 53.4923 29.1439C53.567 29.2186 53.6044 29.3092 53.6044 29.4159V30.5999C53.6044 30.7172 53.567 30.8132 53.4923 30.8879C53.4176 30.9626 53.327 30.9999 53.2203 30.9999H51.8284Z" fill="#AE8BF8"/>
</g>
<defs>
<clipPath id="clip0_337_350">
<rect width="54" height="32" fill="white"/>
</clipPath>
</defs>
</svg>
