<svg width="54" height="32" viewBox="0 0 54 32" fill="none" xmlns="http://www.w3.org/2000/svg">
<path d="M3.88088 12C3.76354 12 3.66754 11.9627 3.59288 11.888C3.51821 11.8133 3.48088 11.7173 3.48088 11.6V1.2C3.48088 1.08267 3.51821 0.986666 3.59288 0.912C3.66754 0.837333 3.76354 0.799999 3.88088 0.799999H8.12088C9.45421 0.799999 10.5049 1.10933 11.2729 1.728C12.0409 2.336 12.4249 3.216 12.4249 4.368C12.4249 5.14667 12.2382 5.79733 11.8649 6.32C11.4915 6.84267 10.9902 7.232 10.3609 7.488L12.6169 11.488C12.6489 11.552 12.6649 11.6107 12.6649 11.664C12.6649 11.7493 12.6329 11.8293 12.5689 11.904C12.5049 11.968 12.4249 12 12.3289 12H10.5529C10.3609 12 10.2169 11.952 10.1209 11.856C10.0249 11.7493 9.95554 11.6533 9.91288 11.568L7.96088 7.904H6.02488V11.6C6.02488 11.7173 5.98754 11.8133 5.91288 11.888C5.83821 11.9627 5.74221 12 5.62488 12H3.88088ZM6.02488 5.872H8.07288C8.65954 5.872 9.09154 5.73867 9.36888 5.472C9.65688 5.20533 9.80088 4.832 9.80088 4.352C9.80088 3.872 9.66221 3.49333 9.38488 3.216C9.10754 2.93867 8.67021 2.8 8.07288 2.8H6.02488V5.872ZM17.8138 12.16C16.5871 12.16 15.6111 11.8187 14.8858 11.136C14.1711 10.4533 13.7924 9.46133 13.7498 8.16C13.7498 8.07467 13.7498 7.96267 13.7498 7.824C13.7498 7.67467 13.7498 7.55733 13.7498 7.472C13.7924 6.65067 13.9791 5.94667 14.3098 5.36C14.6404 4.76267 15.1044 4.30933 15.7018 4C16.2991 3.68 16.9978 3.52 17.7977 3.52C18.6938 3.52 19.4404 3.70667 20.0378 4.08C20.6458 4.44267 21.0991 4.944 21.3978 5.584C21.7071 6.21333 21.8618 6.93867 21.8618 7.76V8.128C21.8618 8.23467 21.8191 8.32533 21.7338 8.4C21.6591 8.47467 21.5684 8.512 21.4618 8.512H16.2298C16.2298 8.52267 16.2298 8.544 16.2298 8.576C16.2298 8.59733 16.2298 8.61867 16.2298 8.64C16.2404 8.98133 16.3044 9.296 16.4218 9.584C16.5498 9.86133 16.7258 10.0853 16.9498 10.256C17.1844 10.4267 17.4618 10.512 17.7818 10.512C18.0484 10.512 18.2671 10.4747 18.4378 10.4C18.6084 10.3253 18.7471 10.2347 18.8538 10.128C18.9711 10.0213 19.0564 9.93067 19.1098 9.856C19.2058 9.74933 19.2804 9.68533 19.3338 9.664C19.3978 9.632 19.4938 9.616 19.6218 9.616H21.2858C21.3924 9.616 21.4778 9.648 21.5417 9.712C21.6164 9.76533 21.6484 9.84533 21.6378 9.952C21.6271 10.1227 21.5364 10.336 21.3658 10.592C21.2058 10.8373 20.9658 11.0827 20.6458 11.328C20.3258 11.5627 19.9258 11.76 19.4458 11.92C18.9764 12.08 18.4324 12.16 17.8138 12.16ZM16.2298 7.056H19.3658V7.024C19.3658 6.64 19.3018 6.30933 19.1738 6.032C19.0564 5.744 18.8804 5.52 18.6458 5.36C18.4111 5.2 18.1284 5.12 17.7977 5.12C17.4671 5.12 17.1844 5.2 16.9498 5.36C16.7151 5.52 16.5338 5.744 16.4058 6.032C16.2884 6.30933 16.2298 6.64 16.2298 7.024V7.056ZM26.5491 12.16C26.0158 12.16 25.5411 12.0747 25.1251 11.904C24.7091 11.7227 24.3571 11.4667 24.0691 11.136C23.7811 10.7947 23.5625 10.3947 23.4131 9.936C23.2638 9.46667 23.1731 8.94933 23.1411 8.384C23.1305 8.18133 23.1251 8 23.1251 7.84C23.1251 7.66933 23.1305 7.488 23.1411 7.296C23.1625 6.74133 23.2478 6.23467 23.3971 5.776C23.5571 5.31733 23.7758 4.92267 24.0531 4.592C24.3411 4.25067 24.6931 3.98933 25.1091 3.808C25.5358 3.616 26.0158 3.52 26.5491 3.52C27.1038 3.52 27.5785 3.616 27.9731 3.808C28.3678 3.98933 28.6931 4.22933 28.9491 4.528V1.04C28.9491 0.922666 28.9865 0.826666 29.0611 0.752C29.1358 0.677333 29.2318 0.639999 29.3491 0.639999H30.9971C31.1038 0.639999 31.1945 0.677333 31.2691 0.752C31.3438 0.826666 31.3811 0.922666 31.3811 1.04V11.6C31.3811 11.7173 31.3438 11.8133 31.2691 11.888C31.1945 11.9627 31.1038 12 30.9971 12H29.4611C29.3545 12 29.2638 11.9627 29.1891 11.888C29.1145 11.8133 29.0771 11.7173 29.0771 11.6V11.056C28.8105 11.376 28.4745 11.6427 28.0691 11.856C27.6638 12.0587 27.1571 12.16 26.5491 12.16ZM27.2851 10.24C27.6798 10.24 27.9945 10.1493 28.2291 9.968C28.4745 9.78667 28.6505 9.55733 28.7571 9.28C28.8745 9.00267 28.9385 8.704 28.9491 8.384C28.9705 8.18133 28.9811 7.97867 28.9811 7.776C28.9811 7.57333 28.9705 7.376 28.9491 7.184C28.9385 6.88533 28.8745 6.608 28.7571 6.352C28.6398 6.08533 28.4585 5.86667 28.2131 5.696C27.9785 5.52533 27.6691 5.44 27.2851 5.44C26.8798 5.44 26.5598 5.53067 26.3251 5.712C26.0905 5.88267 25.9198 6.112 25.8131 6.4C25.7171 6.688 25.6585 7.00267 25.6371 7.344C25.6051 7.67467 25.6051 8.00533 25.6371 8.336C25.6585 8.67733 25.7171 8.992 25.8131 9.28C25.9198 9.568 26.0905 9.80267 26.3251 9.984C26.5598 10.1547 26.8798 10.24 27.2851 10.24ZM36.4703 12.16C35.8516 12.16 35.3023 12.0213 34.8223 11.744C34.3529 11.456 33.9849 11.0453 33.7183 10.512C33.4623 9.968 33.3343 9.312 33.3343 8.544V4.08C33.3343 3.96267 33.3716 3.86667 33.4463 3.792C33.5209 3.71733 33.6116 3.68 33.7183 3.68H35.4143C35.5316 3.68 35.6276 3.71733 35.7023 3.792C35.7769 3.86667 35.8143 3.96267 35.8143 4.08V8.448C35.8143 9.64267 36.3369 10.24 37.3823 10.24C37.8836 10.24 38.2783 10.0853 38.5663 9.776C38.8649 9.456 39.0143 9.01333 39.0143 8.448V4.08C39.0143 3.96267 39.0516 3.86667 39.1263 3.792C39.2009 3.71733 39.2969 3.68 39.4143 3.68H41.1103C41.2169 3.68 41.3076 3.71733 41.3823 3.792C41.4569 3.86667 41.4943 3.96267 41.4943 4.08V11.6C41.4943 11.7173 41.4569 11.8133 41.3823 11.888C41.3076 11.9627 41.2169 12 41.1103 12H39.5423C39.4249 12 39.3289 11.9627 39.2543 11.888C39.1796 11.8133 39.1423 11.7173 39.1423 11.6V10.976C38.8649 11.36 38.5076 11.6533 38.0703 11.856C37.6329 12.0587 37.0996 12.16 36.4703 12.16ZM43.156 12C43.06 12 42.9747 11.968 42.9 11.904C42.836 11.8293 42.804 11.744 42.804 11.648C42.804 11.616 42.8093 11.5787 42.82 11.536C42.8413 11.4827 42.868 11.4347 42.9 11.392L45.604 7.728L43.124 4.288C43.092 4.24533 43.0653 4.20267 43.044 4.16C43.0333 4.11733 43.028 4.07467 43.028 4.032C43.028 3.936 43.06 3.856 43.124 3.792C43.1987 3.71733 43.284 3.68 43.38 3.68H45.044C45.172 3.68 45.268 3.712 45.332 3.776C45.4067 3.84 45.46 3.89867 45.492 3.952L47.14 6.192L48.788 3.968C48.8307 3.91467 48.884 3.856 48.948 3.792C49.012 3.71733 49.1133 3.68 49.252 3.68H50.836C50.932 3.68 51.012 3.71733 51.076 3.792C51.1507 3.856 51.188 3.936 51.188 4.032C51.188 4.07467 51.1827 4.11733 51.172 4.16C51.1613 4.20267 51.1347 4.24533 51.092 4.288L48.564 7.744L51.3 11.392C51.332 11.4347 51.3533 11.4773 51.364 11.52C51.3853 11.5627 51.396 11.6053 51.396 11.648C51.396 11.744 51.3587 11.8293 51.284 11.904C51.22 11.968 51.14 12 51.044 12H49.3C49.1827 12 49.092 11.9733 49.028 11.92C48.964 11.856 48.9107 11.7973 48.868 11.744L47.092 9.376L45.284 11.744C45.252 11.7867 45.204 11.84 45.14 11.904C45.076 11.968 44.98 12 44.852 12H43.156ZM4.05581 31C3.93848 31 3.84248 30.9627 3.76781 30.888C3.69315 30.8133 3.65581 30.7173 3.65581 30.6V22.024H0.743813C0.637146 22.024 0.546479 21.9867 0.471813 21.912C0.397146 21.8373 0.359813 21.7467 0.359813 21.64V20.2C0.359813 20.0827 0.397146 19.9867 0.471813 19.912C0.546479 19.8373 0.637146 19.8 0.743813 19.8H9.12781C9.24515 19.8 9.34115 19.8373 9.41581 19.912C9.49048 19.9867 9.52781 20.0827 9.52781 20.2V21.64C9.52781 21.7467 9.49048 21.8373 9.41581 21.912C9.34115 21.9867 9.24515 22.024 9.12781 22.024H6.23181V30.6C6.23181 30.7173 6.19448 30.8133 6.11981 30.888C6.04515 30.9627 5.94915 31 5.83181 31H4.05581ZM13.2613 31.16C12.376 31.16 11.6346 31.016 11.0373 30.728C10.44 30.4293 9.98131 30.008 9.66131 29.464C9.35198 28.92 9.18131 28.2853 9.14931 27.56C9.13865 27.3467 9.13331 27.1067 9.13331 26.84C9.13331 26.5627 9.13865 26.3227 9.14931 26.12C9.18131 25.384 9.36265 24.7493 9.69331 24.216C10.024 23.672 10.488 23.256 11.0853 22.968C11.6826 22.6693 12.408 22.52 13.2613 22.52C14.104 22.52 14.824 22.6693 15.4213 22.968C16.0186 23.256 16.4826 23.672 16.8133 24.216C17.144 24.7493 17.3253 25.384 17.3573 26.12C17.3786 26.3227 17.3893 26.5627 17.3893 26.84C17.3893 27.1067 17.3786 27.3467 17.3573 27.56C17.3253 28.2853 17.1493 28.92 16.8293 29.464C16.52 30.008 16.0666 30.4293 15.4693 30.728C14.872 31.016 14.136 31.16 13.2613 31.16ZM13.2613 29.4C13.784 29.4 14.1786 29.24 14.4453 28.92C14.712 28.5893 14.856 28.1093 14.8773 27.48C14.888 27.32 14.8933 27.1067 14.8933 26.84C14.8933 26.5733 14.888 26.36 14.8773 26.2C14.856 25.5813 14.712 25.1067 14.4453 24.776C14.1786 24.4453 13.784 24.28 13.2613 24.28C12.7386 24.28 12.3386 24.4453 12.0613 24.776C11.7946 25.1067 11.6506 25.5813 11.6293 26.2C11.6186 26.36 11.6133 26.5733 11.6133 26.84C11.6133 27.1067 11.6186 27.32 11.6293 27.48C11.6506 28.1093 11.7946 28.5893 12.0613 28.92C12.3386 29.24 12.7386 29.4 13.2613 29.4ZM22.8707 31.16C21.9854 31.16 21.244 31.016 20.6467 30.728C20.0494 30.4293 19.5907 30.008 19.2707 29.464C18.9614 28.92 18.7907 28.2853 18.7587 27.56C18.748 27.3467 18.7427 27.1067 18.7427 26.84C18.7427 26.5627 18.748 26.3227 18.7587 26.12C18.7907 25.384 18.972 24.7493 19.3027 24.216C19.6334 23.672 20.0974 23.256 20.6947 22.968C21.292 22.6693 22.0174 22.52 22.8707 22.52C23.7134 22.52 24.4334 22.6693 25.0307 22.968C25.628 23.256 26.092 23.672 26.4227 24.216C26.7534 24.7493 26.9347 25.384 26.9667 26.12C26.988 26.3227 26.9987 26.5627 26.9987 26.84C26.9987 27.1067 26.988 27.3467 26.9667 27.56C26.9347 28.2853 26.7587 28.92 26.4387 29.464C26.1294 30.008 25.676 30.4293 25.0787 30.728C24.4814 31.016 23.7454 31.16 22.8707 31.16ZM22.8707 29.4C23.3934 29.4 23.788 29.24 24.0547 28.92C24.3214 28.5893 24.4654 28.1093 24.4867 27.48C24.4974 27.32 24.5027 27.1067 24.5027 26.84C24.5027 26.5733 24.4974 26.36 24.4867 26.2C24.4654 25.5813 24.3214 25.1067 24.0547 24.776C23.788 24.4453 23.3934 24.28 22.8707 24.28C22.348 24.28 21.948 24.4453 21.6707 24.776C21.404 25.1067 21.26 25.5813 21.2387 26.2C21.228 26.36 21.2227 26.5733 21.2227 26.84C21.2227 27.1067 21.228 27.32 21.2387 27.48C21.26 28.1093 21.404 28.5893 21.6707 28.92C21.948 29.24 22.348 29.4 22.8707 29.4ZM29.0721 31C28.9547 31 28.8587 30.9627 28.7841 30.888C28.7094 30.8133 28.6721 30.7173 28.6721 30.6V20.04C28.6721 19.9227 28.7094 19.8267 28.7841 19.752C28.8587 19.6773 28.9547 19.64 29.0721 19.64H30.6721C30.7787 19.64 30.8694 19.6773 30.9441 19.752C31.0187 19.8267 31.0561 19.9227 31.0561 20.04V30.6C31.0561 30.7173 31.0187 30.8133 30.9441 30.888C30.8694 30.9627 30.7787 31 30.6721 31H29.0721ZM33.6543 31C33.537 31 33.441 30.9627 33.3663 30.888C33.2916 30.8133 33.2543 30.7173 33.2543 30.6V20.2C33.2543 20.0827 33.2916 19.9867 33.3663 19.912C33.441 19.8373 33.537 19.8 33.6543 19.8H35.3503C35.4676 19.8 35.5636 19.8373 35.6383 19.912C35.713 19.9867 35.7503 20.0827 35.7503 20.2V23.848L39.0463 20.104C39.089 20.04 39.1583 19.976 39.2543 19.912C39.361 19.8373 39.4996 19.8 39.6703 19.8H41.6063C41.7023 19.8 41.7823 19.8373 41.8463 19.912C41.9103 19.976 41.9423 20.0507 41.9423 20.136C41.9423 20.2107 41.921 20.2747 41.8783 20.328L37.7663 25.16L42.1823 30.472C42.225 30.5147 42.2463 30.5787 42.2463 30.664C42.2463 30.7493 42.2143 30.8293 42.1503 30.904C42.0863 30.968 42.0063 31 41.9103 31H39.9103C39.7183 31 39.5743 30.9573 39.4783 30.872C39.3823 30.7867 39.3183 30.728 39.2863 30.696L35.7503 26.6V30.6C35.7503 30.7173 35.713 30.8133 35.6383 30.888C35.5636 30.9627 35.4676 31 35.3503 31H33.6543ZM43.8217 31C43.715 31 43.6244 30.9627 43.5497 30.888C43.475 30.8133 43.4377 30.7173 43.4377 30.6V23.08C43.4377 22.9627 43.475 22.8667 43.5497 22.792C43.6244 22.7173 43.715 22.68 43.8217 22.68H45.4217C45.539 22.68 45.635 22.7173 45.7097 22.792C45.7844 22.8667 45.8217 22.9627 45.8217 23.08V30.6C45.8217 30.7173 45.7844 30.8133 45.7097 30.888C45.635 30.9627 45.539 31 45.4217 31H43.8217ZM43.7737 21.4C43.667 21.4 43.5764 21.3627 43.5017 21.288C43.427 21.2133 43.3897 21.1173 43.3897 21V19.72C43.3897 19.6027 43.427 19.5067 43.5017 19.432C43.5764 19.3467 43.667 19.304 43.7737 19.304H45.4537C45.571 19.304 45.667 19.3467 45.7417 19.432C45.827 19.5067 45.8697 19.6027 45.8697 19.72V21C45.8697 21.1173 45.827 21.2133 45.7417 21.288C45.667 21.3627 45.571 21.4 45.4537 21.4H43.7737ZM51.8283 31C51.167 31 50.6016 30.8933 50.1323 30.68C49.663 30.456 49.3056 30.1147 49.0603 29.656C48.8256 29.1973 48.7083 28.6213 48.7083 27.928V24.568H47.4603C47.343 24.568 47.247 24.5307 47.1723 24.456C47.0976 24.3813 47.0603 24.2853 47.0603 24.168V23.08C47.0603 22.9627 47.0976 22.8667 47.1723 22.792C47.247 22.7173 47.343 22.68 47.4603 22.68H48.7083V20.04C48.7083 19.9227 48.7456 19.8267 48.8203 19.752C48.9056 19.6773 49.0016 19.64 49.1083 19.64H50.6763C50.7936 19.64 50.8896 19.6773 50.9643 19.752C51.039 19.8267 51.0763 19.9227 51.0763 20.04V22.68H53.0763C53.183 22.68 53.2736 22.7173 53.3483 22.792C53.423 22.8667 53.4603 22.9627 53.4603 23.08V24.168C53.4603 24.2853 53.423 24.3813 53.3483 24.456C53.2736 24.5307 53.183 24.568 53.0763 24.568H51.0763V27.736C51.0763 28.1413 51.1456 28.4613 51.2843 28.696C51.4336 28.92 51.6896 29.032 52.0523 29.032H53.2203C53.327 29.032 53.4176 29.0693 53.4923 29.144C53.567 29.2187 53.6043 29.3093 53.6043 29.416V30.6C53.6043 30.7173 53.567 30.8133 53.4923 30.888C53.4176 30.9627 53.327 31 53.2203 31H51.8283Z" fill="#ECECEC"/>
</svg>
