<svg width="56" height="32" viewBox="0 0 56 32" fill="none" xmlns="http://www.w3.org/2000/svg">
<path d="M4.38088 12C4.26354 12 4.16754 11.9627 4.09288 11.888C4.01821 11.8133 3.98088 11.7173 3.98088 11.6V1.2C3.98088 1.08267 4.01821 0.986666 4.09288 0.912C4.16754 0.837333 4.26354 0.799999 4.38088 0.799999H8.62088C9.95421 0.799999 11.0049 1.10933 11.7729 1.728C12.5409 2.336 12.9249 3.216 12.9249 4.368C12.9249 5.14667 12.7382 5.79733 12.3649 6.32C11.9915 6.84267 11.4902 7.232 10.8609 7.488L13.1169 11.488C13.1489 11.552 13.1649 11.6107 13.1649 11.664C13.1649 11.7493 13.1329 11.8293 13.0689 11.904C13.0049 11.968 12.9249 12 12.8289 12H11.0529C10.8609 12 10.7169 11.952 10.6209 11.856C10.5249 11.7493 10.4555 11.6533 10.4129 11.568L8.46088 7.904H6.52488V11.6C6.52488 11.7173 6.48754 11.8133 6.41288 11.888C6.33821 11.9627 6.24221 12 6.12488 12H4.38088ZM6.52488 5.872H8.57288C9.15954 5.872 9.59154 5.73867 9.86888 5.472C10.1569 5.20533 10.3009 4.832 10.3009 4.352C10.3009 3.872 10.1622 3.49333 9.88488 3.216C9.60754 2.93867 9.17021 2.8 8.57288 2.8H6.52488V5.872ZM18.3138 12.16C17.0871 12.16 16.1111 11.8187 15.3858 11.136C14.6711 10.4533 14.2924 9.46133 14.2498 8.16C14.2498 8.07467 14.2498 7.96267 14.2498 7.824C14.2498 7.67467 14.2498 7.55733 14.2498 7.472C14.2924 6.65067 14.4791 5.94667 14.8098 5.36C15.1404 4.76267 15.6044 4.30933 16.2018 4C16.7991 3.68 17.4978 3.52 18.2977 3.52C19.1938 3.52 19.9404 3.70667 20.5378 4.08C21.1458 4.44267 21.5991 4.944 21.8978 5.584C22.2071 6.21333 22.3618 6.93867 22.3618 7.76V8.128C22.3618 8.23467 22.3191 8.32533 22.2338 8.4C22.1591 8.47467 22.0684 8.512 21.9618 8.512H16.7298C16.7298 8.52267 16.7298 8.544 16.7298 8.576C16.7298 8.59733 16.7298 8.61867 16.7298 8.64C16.7404 8.98133 16.8044 9.296 16.9218 9.584C17.0498 9.86133 17.2258 10.0853 17.4498 10.256C17.6844 10.4267 17.9618 10.512 18.2818 10.512C18.5484 10.512 18.7671 10.4747 18.9378 10.4C19.1084 10.3253 19.2471 10.2347 19.3538 10.128C19.4711 10.0213 19.5564 9.93067 19.6098 9.856C19.7058 9.74933 19.7804 9.68533 19.8338 9.664C19.8978 9.632 19.9938 9.616 20.1218 9.616H21.7858C21.8924 9.616 21.9778 9.648 22.0417 9.712C22.1164 9.76533 22.1484 9.84533 22.1378 9.952C22.1271 10.1227 22.0364 10.336 21.8658 10.592C21.7058 10.8373 21.4658 11.0827 21.1458 11.328C20.8258 11.5627 20.4258 11.76 19.9458 11.92C19.4764 12.08 18.9324 12.16 18.3138 12.16ZM16.7298 7.056H19.8658V7.024C19.8658 6.64 19.8018 6.30933 19.6738 6.032C19.5564 5.744 19.3804 5.52 19.1458 5.36C18.9111 5.2 18.6284 5.12 18.2977 5.12C17.9671 5.12 17.6844 5.2 17.4498 5.36C17.2151 5.52 17.0338 5.744 16.9058 6.032C16.7884 6.30933 16.7298 6.64 16.7298 7.024V7.056ZM27.0491 12.16C26.5158 12.16 26.0411 12.0747 25.6251 11.904C25.2091 11.7227 24.8571 11.4667 24.5691 11.136C24.2811 10.7947 24.0625 10.3947 23.9131 9.936C23.7638 9.46667 23.6731 8.94933 23.6411 8.384C23.6305 8.18133 23.6251 8 23.6251 7.84C23.6251 7.66933 23.6305 7.488 23.6411 7.296C23.6625 6.74133 23.7478 6.23467 23.8971 5.776C24.0571 5.31733 24.2758 4.92267 24.5531 4.592C24.8411 4.25067 25.1931 3.98933 25.6091 3.808C26.0358 3.616 26.5158 3.52 27.0491 3.52C27.6038 3.52 28.0785 3.616 28.4731 3.808C28.8678 3.98933 29.1931 4.22933 29.4491 4.528V1.04C29.4491 0.922666 29.4865 0.826666 29.5611 0.752C29.6358 0.677333 29.7318 0.639999 29.8491 0.639999H31.4971C31.6038 0.639999 31.6945 0.677333 31.7691 0.752C31.8438 0.826666 31.8811 0.922666 31.8811 1.04V11.6C31.8811 11.7173 31.8438 11.8133 31.7691 11.888C31.6945 11.9627 31.6038 12 31.4971 12H29.9611C29.8545 12 29.7638 11.9627 29.6891 11.888C29.6145 11.8133 29.5771 11.7173 29.5771 11.6V11.056C29.3105 11.376 28.9745 11.6427 28.5691 11.856C28.1638 12.0587 27.6571 12.16 27.0491 12.16ZM27.7851 10.24C28.1798 10.24 28.4945 10.1493 28.7291 9.968C28.9745 9.78667 29.1505 9.55733 29.2571 9.28C29.3745 9.00267 29.4385 8.704 29.4491 8.384C29.4705 8.18133 29.4811 7.97867 29.4811 7.776C29.4811 7.57333 29.4705 7.376 29.4491 7.184C29.4385 6.88533 29.3745 6.608 29.2571 6.352C29.1398 6.08533 28.9585 5.86667 28.7131 5.696C28.4785 5.52533 28.1691 5.44 27.7851 5.44C27.3798 5.44 27.0598 5.53067 26.8251 5.712C26.5905 5.88267 26.4198 6.112 26.3131 6.4C26.2171 6.688 26.1585 7.00267 26.1371 7.344C26.1051 7.67467 26.1051 8.00533 26.1371 8.336C26.1585 8.67733 26.2171 8.992 26.3131 9.28C26.4198 9.568 26.5905 9.80267 26.8251 9.984C27.0598 10.1547 27.3798 10.24 27.7851 10.24ZM36.9703 12.16C36.3516 12.16 35.8023 12.0213 35.3223 11.744C34.8529 11.456 34.4849 11.0453 34.2183 10.512C33.9623 9.968 33.8343 9.312 33.8343 8.544V4.08C33.8343 3.96267 33.8716 3.86667 33.9463 3.792C34.0209 3.71733 34.1116 3.68 34.2183 3.68H35.9143C36.0316 3.68 36.1276 3.71733 36.2023 3.792C36.2769 3.86667 36.3143 3.96267 36.3143 4.08V8.448C36.3143 9.64267 36.8369 10.24 37.8823 10.24C38.3836 10.24 38.7783 10.0853 39.0663 9.776C39.3649 9.456 39.5143 9.01333 39.5143 8.448V4.08C39.5143 3.96267 39.5516 3.86667 39.6263 3.792C39.7009 3.71733 39.7969 3.68 39.9143 3.68H41.6103C41.7169 3.68 41.8076 3.71733 41.8823 3.792C41.9569 3.86667 41.9943 3.96267 41.9943 4.08V11.6C41.9943 11.7173 41.9569 11.8133 41.8823 11.888C41.8076 11.9627 41.7169 12 41.6103 12H40.0423C39.9249 12 39.8289 11.9627 39.7543 11.888C39.6796 11.8133 39.6423 11.7173 39.6423 11.6V10.976C39.3649 11.36 39.0076 11.6533 38.5703 11.856C38.1329 12.0587 37.5996 12.16 36.9703 12.16ZM43.656 12C43.56 12 43.4747 11.968 43.4 11.904C43.336 11.8293 43.304 11.744 43.304 11.648C43.304 11.616 43.3093 11.5787 43.32 11.536C43.3413 11.4827 43.368 11.4347 43.4 11.392L46.104 7.728L43.624 4.288C43.592 4.24533 43.5653 4.20267 43.544 4.16C43.5333 4.11733 43.528 4.07467 43.528 4.032C43.528 3.936 43.56 3.856 43.624 3.792C43.6987 3.71733 43.784 3.68 43.88 3.68H45.544C45.672 3.68 45.768 3.712 45.832 3.776C45.9067 3.84 45.96 3.89867 45.992 3.952L47.64 6.192L49.288 3.968C49.3307 3.91467 49.384 3.856 49.448 3.792C49.512 3.71733 49.6133 3.68 49.752 3.68H51.336C51.432 3.68 51.512 3.71733 51.576 3.792C51.6507 3.856 51.688 3.936 51.688 4.032C51.688 4.07467 51.6827 4.11733 51.672 4.16C51.6613 4.20267 51.6347 4.24533 51.592 4.288L49.064 7.744L51.8 11.392C51.832 11.4347 51.8533 11.4773 51.864 11.52C51.8853 11.5627 51.896 11.6053 51.896 11.648C51.896 11.744 51.8587 11.8293 51.784 11.904C51.72 11.968 51.64 12 51.544 12H49.8C49.6827 12 49.592 11.9733 49.528 11.92C49.464 11.856 49.4107 11.7973 49.368 11.744L47.592 9.376L45.784 11.744C45.752 11.7867 45.704 11.84 45.64 11.904C45.576 11.968 45.48 12 45.352 12H43.656ZM1.07619 31C0.958854 31 0.862854 30.9627 0.788188 30.888C0.713521 30.8133 0.676188 30.7173 0.676188 30.6V20.2C0.676188 20.0827 0.713521 19.9867 0.788188 19.912C0.862854 19.8373 0.958854 19.8 1.07619 19.8H5.44419C6.30819 19.8 7.05485 19.9333 7.68419 20.2C8.32419 20.4667 8.82019 20.872 9.17219 21.416C9.53485 21.9493 9.71619 22.616 9.71619 23.416C9.71619 24.2267 9.53485 24.8987 9.17219 25.432C8.82019 25.9547 8.32419 26.344 7.68419 26.6C7.05485 26.856 6.30819 26.984 5.44419 26.984H3.30019V30.6C3.30019 30.7173 3.26285 30.8133 3.18819 30.888C3.11352 30.9627 3.01752 31 2.90019 31H1.07619ZM3.25219 25H5.36419C5.90819 25 6.32952 24.8667 6.62819 24.6C6.93752 24.3333 7.09219 23.9333 7.09219 23.4C7.09219 22.9307 6.95352 22.5467 6.67619 22.248C6.40952 21.9493 5.97219 21.8 5.36419 21.8H3.25219V25ZM14.7903 31.16C13.5636 31.16 12.5876 30.8187 11.8623 30.136C11.1476 29.4533 10.769 28.4613 10.7263 27.16C10.7263 27.0747 10.7263 26.9627 10.7263 26.824C10.7263 26.6747 10.7263 26.5573 10.7263 26.472C10.769 25.6507 10.9556 24.9467 11.2863 24.36C11.617 23.7627 12.081 23.3093 12.6783 23C13.2756 22.68 13.9743 22.52 14.7743 22.52C15.6703 22.52 16.417 22.7067 17.0143 23.08C17.6223 23.4427 18.0756 23.944 18.3743 24.584C18.6836 25.2133 18.8383 25.9387 18.8383 26.76V27.128C18.8383 27.2347 18.7956 27.3253 18.7103 27.4C18.6356 27.4747 18.545 27.512 18.4383 27.512H13.2063C13.2063 27.5227 13.2063 27.544 13.2063 27.576C13.2063 27.5973 13.2063 27.6187 13.2063 27.64C13.217 27.9813 13.281 28.296 13.3983 28.584C13.5263 28.8613 13.7023 29.0853 13.9263 29.256C14.161 29.4267 14.4383 29.512 14.7583 29.512C15.025 29.512 15.2436 29.4747 15.4143 29.4C15.585 29.3253 15.7236 29.2347 15.8303 29.128C15.9476 29.0213 16.033 28.9307 16.0863 28.856C16.1823 28.7493 16.257 28.6853 16.3103 28.664C16.3743 28.632 16.4703 28.616 16.5983 28.616H18.2623C18.369 28.616 18.4543 28.648 18.5183 28.712C18.593 28.7653 18.625 28.8453 18.6143 28.952C18.6036 29.1227 18.513 29.336 18.3423 29.592C18.1823 29.8373 17.9423 30.0827 17.6223 30.328C17.3023 30.5627 16.9023 30.76 16.4223 30.92C15.953 31.08 15.409 31.16 14.7903 31.16ZM13.2063 26.056H16.3423V26.024C16.3423 25.64 16.2783 25.3093 16.1503 25.032C16.033 24.744 15.857 24.52 15.6223 24.36C15.3876 24.2 15.105 24.12 14.7743 24.12C14.4436 24.12 14.161 24.2 13.9263 24.36C13.6916 24.52 13.5103 24.744 13.3823 25.032C13.265 25.3093 13.2063 25.64 13.2063 26.024V26.056ZM20.8217 31C20.715 31 20.6244 30.9627 20.5497 30.888C20.475 30.8133 20.4377 30.7173 20.4377 30.6V23.08C20.4377 22.9733 20.475 22.8827 20.5497 22.808C20.6244 22.7227 20.715 22.68 20.8217 22.68H22.3897C22.4964 22.68 22.587 22.7227 22.6617 22.808C22.747 22.8827 22.7897 22.9733 22.7897 23.08V23.72C23.0564 23.3893 23.3817 23.1333 23.7657 22.952C24.1604 22.7707 24.6137 22.68 25.1257 22.68H25.8137C25.9204 22.68 26.011 22.7173 26.0857 22.792C26.1604 22.8667 26.1977 22.9627 26.1977 23.08V24.456C26.1977 24.5733 26.1604 24.6693 26.0857 24.744C26.011 24.8187 25.9204 24.856 25.8137 24.856H24.4057C23.9364 24.856 23.5684 24.9893 23.3017 25.256C23.035 25.512 22.9017 25.88 22.9017 26.36V30.6C22.9017 30.7173 22.8644 30.8133 22.7897 30.888C22.715 30.9627 22.619 31 22.5017 31H20.8217ZM30.6708 31.16C30.0095 31.16 29.4388 31.0853 28.9588 30.936C28.4895 30.776 28.1055 30.584 27.8068 30.36C27.5188 30.136 27.3001 29.912 27.1508 29.688C27.0121 29.4533 26.9375 29.256 26.9268 29.096C26.9161 28.9787 26.9535 28.8827 27.0388 28.808C27.1241 28.7333 27.2095 28.696 27.2948 28.696H28.8468C28.8788 28.696 28.9108 28.7013 28.9428 28.712C28.9748 28.7227 29.0068 28.7493 29.0388 28.792C29.1775 28.888 29.3215 29 29.4708 29.128C29.6201 29.2453 29.7908 29.3467 29.9828 29.432C30.1855 29.5173 30.4361 29.56 30.7348 29.56C31.0868 29.56 31.3855 29.4907 31.6308 29.352C31.8761 29.2027 31.9988 28.9947 31.9988 28.728C31.9988 28.536 31.9401 28.376 31.8228 28.248C31.7161 28.12 31.5081 28.0027 31.1988 27.896C30.8895 27.7893 30.4308 27.672 29.8228 27.544C29.2468 27.416 28.7561 27.2453 28.3508 27.032C27.9455 26.8187 27.6415 26.552 27.4388 26.232C27.2361 25.9013 27.1348 25.5067 27.1348 25.048C27.1348 24.632 27.2628 24.232 27.5188 23.848C27.7855 23.464 28.1748 23.1493 28.6868 22.904C29.1988 22.648 29.8388 22.52 30.6068 22.52C31.1935 22.52 31.7055 22.5947 32.1428 22.744C32.5908 22.8827 32.9641 23.064 33.2628 23.288C33.5615 23.5013 33.7855 23.7253 33.9348 23.96C34.0948 24.184 34.1801 24.3813 34.1908 24.552C34.2015 24.6587 34.1695 24.7493 34.0948 24.824C34.0201 24.8987 33.9348 24.936 33.8388 24.936H32.4148C32.3615 24.936 32.3135 24.9307 32.2708 24.92C32.2281 24.8987 32.1908 24.872 32.1588 24.84C32.0308 24.7547 31.8975 24.6587 31.7588 24.552C31.6308 24.4347 31.4761 24.3333 31.2948 24.248C31.1135 24.1627 30.8788 24.12 30.5908 24.12C30.2388 24.12 29.9668 24.2 29.7748 24.36C29.5935 24.5093 29.5028 24.7013 29.5028 24.936C29.5028 25.0853 29.5508 25.224 29.6468 25.352C29.7428 25.48 29.9401 25.5973 30.2388 25.704C30.5375 25.8107 30.9908 25.9227 31.5988 26.04C32.3241 26.168 32.9001 26.36 33.3268 26.616C33.7535 26.872 34.0575 27.1707 34.2388 27.512C34.4308 27.8427 34.5268 28.2 34.5268 28.584C34.5268 29.0853 34.3775 29.5333 34.0788 29.928C33.7801 30.312 33.3428 30.616 32.7668 30.84C32.2015 31.0533 31.5028 31.16 30.6708 31.16ZM36.4467 31C36.34 31 36.2494 30.9627 36.1747 30.888C36.1 30.8133 36.0627 30.7173 36.0627 30.6V23.08C36.0627 22.9627 36.1 22.8667 36.1747 22.792C36.2494 22.7173 36.34 22.68 36.4467 22.68H38.0467C38.164 22.68 38.26 22.7173 38.3347 22.792C38.4094 22.8667 38.4467 22.9627 38.4467 23.08V30.6C38.4467 30.7173 38.4094 30.8133 38.3347 30.888C38.26 30.9627 38.164 31 38.0467 31H36.4467ZM36.3987 21.4C36.292 21.4 36.2014 21.3627 36.1267 21.288C36.052 21.2133 36.0147 21.1173 36.0147 21V19.72C36.0147 19.6027 36.052 19.5067 36.1267 19.432C36.2014 19.3467 36.292 19.304 36.3987 19.304H38.0787C38.196 19.304 38.292 19.3467 38.3667 19.432C38.452 19.5067 38.4947 19.6027 38.4947 19.72V21C38.4947 21.1173 38.452 21.2133 38.3667 21.288C38.292 21.3627 38.196 21.4 38.0787 21.4H36.3987ZM43.9833 31.16C43.322 31.16 42.7513 31.0853 42.2713 30.936C41.802 30.776 41.418 30.584 41.1193 30.36C40.8313 30.136 40.6126 29.912 40.4633 29.688C40.3246 29.4533 40.25 29.256 40.2393 29.096C40.2286 28.9787 40.266 28.8827 40.3513 28.808C40.4366 28.7333 40.522 28.696 40.6073 28.696H42.1593C42.1913 28.696 42.2233 28.7013 42.2553 28.712C42.2873 28.7227 42.3193 28.7493 42.3513 28.792C42.49 28.888 42.634 29 42.7833 29.128C42.9326 29.2453 43.1033 29.3467 43.2953 29.432C43.498 29.5173 43.7486 29.56 44.0473 29.56C44.3993 29.56 44.698 29.4907 44.9433 29.352C45.1886 29.2027 45.3113 28.9947 45.3113 28.728C45.3113 28.536 45.2526 28.376 45.1353 28.248C45.0286 28.12 44.8206 28.0027 44.5113 27.896C44.202 27.7893 43.7433 27.672 43.1353 27.544C42.5593 27.416 42.0686 27.2453 41.6633 27.032C41.258 26.8187 40.954 26.552 40.7513 26.232C40.5486 25.9013 40.4473 25.5067 40.4473 25.048C40.4473 24.632 40.5753 24.232 40.8313 23.848C41.098 23.464 41.4873 23.1493 41.9993 22.904C42.5113 22.648 43.1513 22.52 43.9193 22.52C44.506 22.52 45.018 22.5947 45.4553 22.744C45.9033 22.8827 46.2766 23.064 46.5753 23.288C46.874 23.5013 47.098 23.7253 47.2473 23.96C47.4073 24.184 47.4926 24.3813 47.5033 24.552C47.514 24.6587 47.482 24.7493 47.4073 24.824C47.3326 24.8987 47.2473 24.936 47.1513 24.936H45.7273C45.674 24.936 45.626 24.9307 45.5833 24.92C45.5406 24.8987 45.5033 24.872 45.4713 24.84C45.3433 24.7547 45.21 24.6587 45.0713 24.552C44.9433 24.4347 44.7886 24.3333 44.6073 24.248C44.426 24.1627 44.1913 24.12 43.9033 24.12C43.5513 24.12 43.2793 24.2 43.0873 24.36C42.906 24.5093 42.8153 24.7013 42.8153 24.936C42.8153 25.0853 42.8633 25.224 42.9593 25.352C43.0553 25.48 43.2526 25.5973 43.5513 25.704C43.85 25.8107 44.3033 25.9227 44.9113 26.04C45.6366 26.168 46.2126 26.36 46.6393 26.616C47.066 26.872 47.37 27.1707 47.5513 27.512C47.7433 27.8427 47.8393 28.2 47.8393 28.584C47.8393 29.0853 47.69 29.5333 47.3913 29.928C47.0926 30.312 46.6553 30.616 46.0793 30.84C45.514 31.0533 44.8153 31.16 43.9833 31.16ZM53.3439 31C52.6826 31 52.1173 30.8933 51.6479 30.68C51.1786 30.456 50.8213 30.1147 50.5759 29.656C50.3413 29.1973 50.2239 28.6213 50.2239 27.928V24.568H48.9759C48.8586 24.568 48.7626 24.5307 48.6879 24.456C48.6133 24.3813 48.5759 24.2853 48.5759 24.168V23.08C48.5759 22.9627 48.6133 22.8667 48.6879 22.792C48.7626 22.7173 48.8586 22.68 48.9759 22.68H50.2239V20.04C50.2239 19.9227 50.2613 19.8267 50.3359 19.752C50.4213 19.6773 50.5173 19.64 50.6239 19.64H52.1919C52.3093 19.64 52.4053 19.6773 52.4799 19.752C52.5546 19.8267 52.5919 19.9227 52.5919 20.04V22.68H54.5919C54.6986 22.68 54.7893 22.7173 54.8639 22.792C54.9386 22.8667 54.9759 22.9627 54.9759 23.08V24.168C54.9759 24.2853 54.9386 24.3813 54.8639 24.456C54.7893 24.5307 54.6986 24.568 54.5919 24.568H52.5919V27.736C52.5919 28.1413 52.6613 28.4613 52.7999 28.696C52.9493 28.92 53.2053 29.032 53.5679 29.032H54.7359C54.8426 29.032 54.9333 29.0693 55.0079 29.144C55.0826 29.2187 55.1199 29.3093 55.1199 29.416V30.6C55.1199 30.7173 55.0826 30.8133 55.0079 30.888C54.9333 30.9627 54.8426 31 54.7359 31H53.3439Z" fill="#ECECEC"/>
</svg>
