<svg width="56" height="32" viewBox="0 0 56 32" fill="none" xmlns="http://www.w3.org/2000/svg">
<g clip-path="url(#clip0_337_346)">
<path d="M4.38096 11.9999C4.26362 11.9999 4.16762 11.9626 4.09296 11.8879C4.01829 11.8132 3.98096 11.7172 3.98096 11.5999V1.19989C3.98096 1.08256 4.01829 0.98656 4.09296 0.911894C4.16762 0.837227 4.26362 0.799893 4.38096 0.799893H8.62096C9.95429 0.799893 11.005 1.10922 11.773 1.72789C12.541 2.33589 12.925 3.21589 12.925 4.36789C12.925 5.14656 12.7383 5.79722 12.365 6.31989C11.9916 6.84256 11.4903 7.23189 10.861 7.48789L13.117 11.4879C13.149 11.5519 13.165 11.6106 13.165 11.6639C13.165 11.7492 13.133 11.8292 13.069 11.9039C13.005 11.9679 12.925 11.9999 12.829 11.9999H11.053C10.861 11.9999 10.717 11.9519 10.621 11.8559C10.525 11.7492 10.4556 11.6532 10.413 11.5679L8.46096 7.90389H6.52496V11.5999C6.52496 11.7172 6.48762 11.8132 6.41296 11.8879C6.33829 11.9626 6.24229 11.9999 6.12496 11.9999H4.38096ZM6.52496 5.87189H8.57296C9.15962 5.87189 9.59162 5.73856 9.86896 5.47189C10.157 5.20522 10.301 4.83189 10.301 4.35189C10.301 3.87189 10.1623 3.49322 9.88496 3.21589C9.60762 2.93856 9.17029 2.79989 8.57296 2.79989H6.52496V5.87189ZM18.3139 12.1599C17.0872 12.1599 16.1112 11.8186 15.3859 11.1359C14.6712 10.4532 14.2925 9.46122 14.2499 8.15989C14.2499 8.07456 14.2499 7.96256 14.2499 7.82389C14.2499 7.67456 14.2499 7.55722 14.2499 7.47189C14.2925 6.65056 14.4792 5.94656 14.8099 5.35989C15.1405 4.76256 15.6045 4.30922 16.2019 3.99989C16.7992 3.67989 17.4979 3.51989 18.2978 3.51989C19.1939 3.51989 19.9405 3.70656 20.5379 4.07989C21.1459 4.44256 21.5992 4.94389 21.8979 5.58389C22.2072 6.21322 22.3619 6.93856 22.3619 7.75989V8.12789C22.3619 8.23456 22.3192 8.32522 22.2339 8.39989C22.1592 8.47456 22.0685 8.51189 21.9619 8.51189H16.7299C16.7299 8.52256 16.7299 8.54389 16.7299 8.57589C16.7299 8.59722 16.7299 8.61856 16.7299 8.63989C16.7405 8.98122 16.8045 9.29589 16.9219 9.58389C17.0499 9.86122 17.2259 10.0852 17.4499 10.2559C17.6845 10.4266 17.9619 10.5119 18.2819 10.5119C18.5485 10.5119 18.7672 10.4746 18.9379 10.3999C19.1085 10.3252 19.2472 10.2346 19.3539 10.1279C19.4712 10.0212 19.5565 9.93056 19.6099 9.85589C19.7059 9.74922 19.7805 9.68522 19.8339 9.66389C19.8979 9.63189 19.9939 9.61589 20.1219 9.61589H21.7859C21.8925 9.61589 21.9779 9.64789 22.0418 9.71189C22.1165 9.76522 22.1485 9.84522 22.1379 9.95189C22.1272 10.1226 22.0365 10.3359 21.8659 10.5919C21.7059 10.8372 21.4659 11.0826 21.1459 11.3279C20.8259 11.5626 20.4259 11.7599 19.9459 11.9199C19.4765 12.0799 18.9325 12.1599 18.3139 12.1599ZM16.7299 7.05589H19.8659V7.02389C19.8659 6.63989 19.8019 6.30922 19.6739 6.03189C19.5565 5.74389 19.3805 5.51989 19.1459 5.35989C18.9112 5.19989 18.6285 5.11989 18.2978 5.11989C17.9672 5.11989 17.6845 5.19989 17.4499 5.35989C17.2152 5.51989 17.0339 5.74389 16.9059 6.03189C16.7885 6.30922 16.7299 6.63989 16.7299 7.02389V7.05589ZM27.0492 12.1599C26.5159 12.1599 26.0412 12.0746 25.6252 11.9039C25.2092 11.7226 24.8572 11.4666 24.5692 11.1359C24.2812 10.7946 24.0626 10.3946 23.9132 9.93589C23.7639 9.46656 23.6732 8.94922 23.6412 8.38389C23.6306 8.18122 23.6252 7.99989 23.6252 7.83989C23.6252 7.66922 23.6306 7.48789 23.6412 7.29589C23.6626 6.74122 23.7479 6.23456 23.8972 5.77589C24.0572 5.31722 24.2759 4.92256 24.5532 4.59189C24.8412 4.25056 25.1932 3.98922 25.6092 3.80789C26.0359 3.61589 26.5159 3.51989 27.0492 3.51989C27.6039 3.51989 28.0786 3.61589 28.4732 3.80789C28.8679 3.98922 29.1932 4.22922 29.4492 4.52789V1.03989C29.4492 0.92256 29.4866 0.82656 29.5612 0.751894C29.6359 0.677227 29.7319 0.639893 29.8492 0.639893H31.4972C31.6039 0.639893 31.6946 0.677227 31.7692 0.751894C31.8439 0.82656 31.8812 0.92256 31.8812 1.03989V11.5999C31.8812 11.7172 31.8439 11.8132 31.7692 11.8879C31.6946 11.9626 31.6039 11.9999 31.4972 11.9999H29.9612C29.8546 11.9999 29.7639 11.9626 29.6892 11.8879C29.6146 11.8132 29.5772 11.7172 29.5772 11.5999V11.0559C29.3106 11.3759 28.9746 11.6426 28.5692 11.8559C28.1639 12.0586 27.6572 12.1599 27.0492 12.1599ZM27.7852 10.2399C28.1799 10.2399 28.4946 10.1492 28.7292 9.96789C28.9746 9.78656 29.1506 9.55722 29.2572 9.27989C29.3746 9.00256 29.4386 8.70389 29.4492 8.38389C29.4706 8.18122 29.4812 7.97856 29.4812 7.77589C29.4812 7.57322 29.4706 7.37589 29.4492 7.18389C29.4386 6.88522 29.3746 6.60789 29.2572 6.35189C29.1399 6.08522 28.9586 5.86656 28.7132 5.69589C28.4786 5.52522 28.1692 5.43989 27.7852 5.43989C27.3799 5.43989 27.0599 5.53056 26.8252 5.71189C26.5906 5.88256 26.4199 6.11189 26.3132 6.39989C26.2172 6.68789 26.1586 7.00256 26.1372 7.34389C26.1052 7.67456 26.1052 8.00522 26.1372 8.33589C26.1586 8.67722 26.2172 8.99189 26.3132 9.27989C26.4199 9.56789 26.5906 9.80256 26.8252 9.98389C27.0599 10.1546 27.3799 10.2399 27.7852 10.2399ZM36.9704 12.1599C36.3517 12.1599 35.8024 12.0212 35.3224 11.7439C34.853 11.4559 34.485 11.0452 34.2184 10.5119C33.9624 9.96789 33.8344 9.31189 33.8344 8.54389V4.07989C33.8344 3.96256 33.8717 3.86656 33.9464 3.79189C34.021 3.71722 34.1117 3.67989 34.2184 3.67989H35.9144C36.0317 3.67989 36.1277 3.71722 36.2024 3.79189C36.277 3.86656 36.3144 3.96256 36.3144 4.07989V8.44789C36.3144 9.64256 36.837 10.2399 37.8824 10.2399C38.3837 10.2399 38.7784 10.0852 39.0664 9.77589C39.365 9.45589 39.5144 9.01322 39.5144 8.44789V4.07989C39.5144 3.96256 39.5517 3.86656 39.6264 3.79189C39.701 3.71722 39.797 3.67989 39.9144 3.67989H41.6104C41.717 3.67989 41.8077 3.71722 41.8824 3.79189C41.957 3.86656 41.9944 3.96256 41.9944 4.07989V11.5999C41.9944 11.7172 41.957 11.8132 41.8824 11.8879C41.8077 11.9626 41.717 11.9999 41.6104 11.9999H40.0424C39.925 11.9999 39.829 11.9626 39.7544 11.8879C39.6797 11.8132 39.6424 11.7172 39.6424 11.5999V10.9759C39.365 11.3599 39.0077 11.6532 38.5704 11.8559C38.133 12.0586 37.5997 12.1599 36.9704 12.1599ZM43.6561 11.9999C43.5601 11.9999 43.4748 11.9679 43.4001 11.9039C43.3361 11.8292 43.3041 11.7439 43.3041 11.6479C43.3041 11.6159 43.3094 11.5786 43.3201 11.5359C43.3414 11.4826 43.3681 11.4346 43.4001 11.3919L46.1041 7.72789L43.6241 4.28789C43.5921 4.24522 43.5654 4.20256 43.5441 4.15989C43.5334 4.11722 43.5281 4.07456 43.5281 4.03189C43.5281 3.93589 43.5601 3.85589 43.6241 3.79189C43.6988 3.71722 43.7841 3.67989 43.8801 3.67989H45.5441C45.6721 3.67989 45.7681 3.71189 45.8321 3.77589C45.9068 3.83989 45.9601 3.89856 45.9921 3.95189L47.6401 6.19189L49.2881 3.96789C49.3308 3.91456 49.3841 3.85589 49.4481 3.79189C49.5121 3.71722 49.6134 3.67989 49.7521 3.67989H51.3361C51.4321 3.67989 51.5121 3.71722 51.5761 3.79189C51.6508 3.85589 51.6881 3.93589 51.6881 4.03189C51.6881 4.07456 51.6828 4.11722 51.6721 4.15989C51.6614 4.20256 51.6348 4.24522 51.5921 4.28789L49.0641 7.74389L51.8001 11.3919C51.8321 11.4346 51.8534 11.4772 51.8641 11.5199C51.8854 11.5626 51.8961 11.6052 51.8961 11.6479C51.8961 11.7439 51.8588 11.8292 51.7841 11.9039C51.7201 11.9679 51.6401 11.9999 51.5441 11.9999H49.8001C49.6828 11.9999 49.5921 11.9732 49.5281 11.9199C49.4641 11.8559 49.4108 11.7972 49.3681 11.7439L47.5921 9.37589L45.7841 11.7439C45.7521 11.7866 45.7041 11.8399 45.6401 11.9039C45.5761 11.9679 45.4801 11.9999 45.3521 11.9999H43.6561ZM1.07627 30.9999C0.958936 30.9999 0.862936 30.9626 0.78827 30.8879C0.713603 30.8132 0.67627 30.7172 0.67627 30.5999V20.1999C0.67627 20.0826 0.713603 19.9866 0.78827 19.9119C0.862936 19.8372 0.958936 19.7999 1.07627 19.7999H5.44427C6.30827 19.7999 7.05493 19.9332 7.68427 20.1999C8.32427 20.4666 8.82027 20.8719 9.17227 21.4159C9.53493 21.9492 9.71627 22.6159 9.71627 23.4159C9.71627 24.2266 9.53493 24.8986 9.17227 25.4319C8.82027 25.9546 8.32427 26.3439 7.68427 26.5999C7.05493 26.8559 6.30827 26.9839 5.44427 26.9839H3.30027V30.5999C3.30027 30.7172 3.26293 30.8132 3.18827 30.8879C3.1136 30.9626 3.0176 30.9999 2.90027 30.9999H1.07627ZM3.25227 24.9999H5.36427C5.90827 24.9999 6.3296 24.8666 6.62827 24.5999C6.9376 24.3332 7.09227 23.9332 7.09227 23.3999C7.09227 22.9306 6.9536 22.5466 6.67627 22.2479C6.4096 21.9492 5.97227 21.7999 5.36427 21.7999H3.25227V24.9999ZM14.7904 31.1599C13.5637 31.1599 12.5877 30.8186 11.8624 30.1359C11.1477 29.4532 10.7691 28.4612 10.7264 27.1599C10.7264 27.0746 10.7264 26.9626 10.7264 26.8239C10.7264 26.6746 10.7264 26.5572 10.7264 26.4719C10.7691 25.6506 10.9557 24.9466 11.2864 24.3599C11.6171 23.7626 12.0811 23.3092 12.6784 22.9999C13.2757 22.6799 13.9744 22.5199 14.7744 22.5199C15.6704 22.5199 16.4171 22.7066 17.0144 23.0799C17.6224 23.4426 18.0757 23.9439 18.3744 24.5839C18.6837 25.2132 18.8384 25.9386 18.8384 26.7599V27.1279C18.8384 27.2346 18.7957 27.3252 18.7104 27.3999C18.6357 27.4746 18.5451 27.5119 18.4384 27.5119H13.2064C13.2064 27.5226 13.2064 27.5439 13.2064 27.5759C13.2064 27.5972 13.2064 27.6186 13.2064 27.6399C13.2171 27.9812 13.2811 28.2959 13.3984 28.5839C13.5264 28.8612 13.7024 29.0852 13.9264 29.2559C14.1611 29.4266 14.4384 29.5119 14.7584 29.5119C15.0251 29.5119 15.2437 29.4746 15.4144 29.3999C15.5851 29.3252 15.7237 29.2346 15.8304 29.1279C15.9477 29.0212 16.0331 28.9306 16.0864 28.8559C16.1824 28.7492 16.2571 28.6852 16.3104 28.6639C16.3744 28.6319 16.4704 28.6159 16.5984 28.6159H18.2624C18.3691 28.6159 18.4544 28.6479 18.5184 28.7119C18.5931 28.7652 18.6251 28.8452 18.6144 28.9519C18.6037 29.1226 18.5131 29.3359 18.3424 29.5919C18.1824 29.8372 17.9424 30.0826 17.6224 30.3279C17.3024 30.5626 16.9024 30.7599 16.4224 30.9199C15.9531 31.0799 15.4091 31.1599 14.7904 31.1599ZM13.2064 26.0559H16.3424V26.0239C16.3424 25.6399 16.2784 25.3092 16.1504 25.0319C16.0331 24.7439 15.8571 24.5199 15.6224 24.3599C15.3877 24.1999 15.1051 24.1199 14.7744 24.1199C14.4437 24.1199 14.1611 24.1999 13.9264 24.3599C13.6917 24.5199 13.5104 24.7439 13.3824 25.0319C13.2651 25.3092 13.2064 25.6399 13.2064 26.0239V26.0559ZM20.8218 30.9999C20.7151 30.9999 20.6245 30.9626 20.5498 30.8879C20.4751 30.8132 20.4378 30.7172 20.4378 30.5999V23.0799C20.4378 22.9732 20.4751 22.8826 20.5498 22.8079C20.6245 22.7226 20.7151 22.6799 20.8218 22.6799H22.3898C22.4965 22.6799 22.5871 22.7226 22.6618 22.8079C22.7471 22.8826 22.7898 22.9732 22.7898 23.0799V23.7199C23.0565 23.3892 23.3818 23.1332 23.7658 22.9519C24.1605 22.7706 24.6138 22.6799 25.1258 22.6799H25.8138C25.9205 22.6799 26.0111 22.7172 26.0858 22.7919C26.1605 22.8666 26.1978 22.9626 26.1978 23.0799V24.4559C26.1978 24.5732 26.1605 24.6692 26.0858 24.7439C26.0111 24.8186 25.9205 24.8559 25.8138 24.8559H24.4058C23.9365 24.8559 23.5685 24.9892 23.3018 25.2559C23.0351 25.5119 22.9018 25.8799 22.9018 26.3599V30.5999C22.9018 30.7172 22.8645 30.8132 22.7898 30.8879C22.7151 30.9626 22.6191 30.9999 22.5018 30.9999H20.8218ZM30.6709 31.1599C30.0096 31.1599 29.4389 31.0852 28.9589 30.9359C28.4896 30.7759 28.1056 30.5839 27.8069 30.3599C27.5189 30.1359 27.3002 29.9119 27.1509 29.6879C27.0122 29.4532 26.9376 29.2559 26.9269 29.0959C26.9162 28.9786 26.9536 28.8826 27.0389 28.8079C27.1242 28.7332 27.2096 28.6959 27.2949 28.6959H28.8469C28.8789 28.6959 28.9109 28.7012 28.9429 28.7119C28.9749 28.7226 29.0069 28.7492 29.0389 28.7919C29.1776 28.8879 29.3216 28.9999 29.4709 29.1279C29.6202 29.2452 29.7909 29.3466 29.9829 29.4319C30.1856 29.5172 30.4362 29.5599 30.7349 29.5599C31.0869 29.5599 31.3856 29.4906 31.6309 29.3519C31.8762 29.2026 31.9989 28.9946 31.9989 28.7279C31.9989 28.5359 31.9402 28.3759 31.8229 28.2479C31.7162 28.1199 31.5082 28.0026 31.1989 27.8959C30.8896 27.7892 30.4309 27.6719 29.8229 27.5439C29.2469 27.4159 28.7562 27.2452 28.3509 27.0319C27.9456 26.8186 27.6416 26.5519 27.4389 26.2319C27.2362 25.9012 27.1349 25.5066 27.1349 25.0479C27.1349 24.6319 27.2629 24.2319 27.5189 23.8479C27.7856 23.4639 28.1749 23.1492 28.6869 22.9039C29.1989 22.6479 29.8389 22.5199 30.6069 22.5199C31.1936 22.5199 31.7056 22.5946 32.1429 22.7439C32.5909 22.8826 32.9642 23.0639 33.2629 23.2879C33.5616 23.5012 33.7856 23.7252 33.9349 23.9599C34.0949 24.1839 34.1802 24.3812 34.1909 24.5519C34.2016 24.6586 34.1696 24.7492 34.0949 24.8239C34.0202 24.8986 33.9349 24.9359 33.8389 24.9359H32.4149C32.3616 24.9359 32.3136 24.9306 32.2709 24.9199C32.2282 24.8986 32.1909 24.8719 32.1589 24.8399C32.0309 24.7546 31.8976 24.6586 31.7589 24.5519C31.6309 24.4346 31.4762 24.3332 31.2949 24.2479C31.1136 24.1626 30.8789 24.1199 30.5909 24.1199C30.2389 24.1199 29.9669 24.1999 29.7749 24.3599C29.5936 24.5092 29.5029 24.7012 29.5029 24.9359C29.5029 25.0852 29.5509 25.2239 29.6469 25.3519C29.7429 25.4799 29.9402 25.5972 30.2389 25.7039C30.5376 25.8106 30.9909 25.9226 31.5989 26.0399C32.3242 26.1679 32.9002 26.3599 33.3269 26.6159C33.7536 26.8719 34.0576 27.1706 34.2389 27.5119C34.4309 27.8426 34.5269 28.1999 34.5269 28.5839C34.5269 29.0852 34.3776 29.5332 34.0789 29.9279C33.7802 30.3119 33.3429 30.6159 32.7669 30.8399C32.2016 31.0532 31.5029 31.1599 30.6709 31.1599ZM36.4468 30.9999C36.3401 30.9999 36.2495 30.9626 36.1748 30.8879C36.1001 30.8132 36.0628 30.7172 36.0628 30.5999V23.0799C36.0628 22.9626 36.1001 22.8666 36.1748 22.7919C36.2495 22.7172 36.3401 22.6799 36.4468 22.6799H38.0468C38.1641 22.6799 38.2601 22.7172 38.3348 22.7919C38.4095 22.8666 38.4468 22.9626 38.4468 23.0799V30.5999C38.4468 30.7172 38.4095 30.8132 38.3348 30.8879C38.2601 30.9626 38.1641 30.9999 38.0468 30.9999H36.4468ZM36.3988 21.3999C36.2921 21.3999 36.2015 21.3626 36.1268 21.2879C36.0521 21.2132 36.0148 21.1172 36.0148 20.9999V19.7199C36.0148 19.6026 36.0521 19.5066 36.1268 19.4319C36.2015 19.3466 36.2921 19.3039 36.3988 19.3039H38.0788C38.1961 19.3039 38.2921 19.3466 38.3668 19.4319C38.4521 19.5066 38.4948 19.6026 38.4948 19.7199V20.9999C38.4948 21.1172 38.4521 21.2132 38.3668 21.2879C38.2921 21.3626 38.1961 21.3999 38.0788 21.3999H36.3988ZM43.9834 31.1599C43.3221 31.1599 42.7514 31.0852 42.2714 30.9359C41.8021 30.7759 41.4181 30.5839 41.1194 30.3599C40.8314 30.1359 40.6127 29.9119 40.4634 29.6879C40.3247 29.4532 40.2501 29.2559 40.2394 29.0959C40.2287 28.9786 40.2661 28.8826 40.3514 28.8079C40.4367 28.7332 40.5221 28.6959 40.6074 28.6959H42.1594C42.1914 28.6959 42.2234 28.7012 42.2554 28.7119C42.2874 28.7226 42.3194 28.7492 42.3514 28.7919C42.4901 28.8879 42.6341 28.9999 42.7834 29.1279C42.9327 29.2452 43.1034 29.3466 43.2954 29.4319C43.4981 29.5172 43.7487 29.5599 44.0474 29.5599C44.3994 29.5599 44.6981 29.4906 44.9434 29.3519C45.1887 29.2026 45.3114 28.9946 45.3114 28.7279C45.3114 28.5359 45.2527 28.3759 45.1354 28.2479C45.0287 28.1199 44.8207 28.0026 44.5114 27.8959C44.2021 27.7892 43.7434 27.6719 43.1354 27.5439C42.5594 27.4159 42.0687 27.2452 41.6634 27.0319C41.2581 26.8186 40.9541 26.5519 40.7514 26.2319C40.5487 25.9012 40.4474 25.5066 40.4474 25.0479C40.4474 24.6319 40.5754 24.2319 40.8314 23.8479C41.0981 23.4639 41.4874 23.1492 41.9994 22.9039C42.5114 22.6479 43.1514 22.5199 43.9194 22.5199C44.5061 22.5199 45.0181 22.5946 45.4554 22.7439C45.9034 22.8826 46.2767 23.0639 46.5754 23.2879C46.8741 23.5012 47.0981 23.7252 47.2474 23.9599C47.4074 24.1839 47.4927 24.3812 47.5034 24.5519C47.5141 24.6586 47.4821 24.7492 47.4074 24.8239C47.3327 24.8986 47.2474 24.9359 47.1514 24.9359H45.7274C45.6741 24.9359 45.6261 24.9306 45.5834 24.9199C45.5407 24.8986 45.5034 24.8719 45.4714 24.8399C45.3434 24.7546 45.2101 24.6586 45.0714 24.5519C44.9434 24.4346 44.7887 24.3332 44.6074 24.2479C44.4261 24.1626 44.1914 24.1199 43.9034 24.1199C43.5514 24.1199 43.2794 24.1999 43.0874 24.3599C42.9061 24.5092 42.8154 24.7012 42.8154 24.9359C42.8154 25.0852 42.8634 25.2239 42.9594 25.3519C43.0554 25.4799 43.2527 25.5972 43.5514 25.7039C43.8501 25.8106 44.3034 25.9226 44.9114 26.0399C45.6367 26.1679 46.2127 26.3599 46.6394 26.6159C47.0661 26.8719 47.3701 27.1706 47.5514 27.5119C47.7434 27.8426 47.8394 28.1999 47.8394 28.5839C47.8394 29.0852 47.6901 29.5332 47.3914 29.9279C47.0927 30.3119 46.6554 30.6159 46.0794 30.8399C45.5141 31.0532 44.8154 31.1599 43.9834 31.1599ZM53.344 30.9999C52.6827 30.9999 52.1174 30.8932 51.648 30.6799C51.1787 30.4559 50.8214 30.1146 50.576 29.6559C50.3414 29.1972 50.224 28.6212 50.224 27.9279V24.5679H48.976C48.8587 24.5679 48.7627 24.5306 48.688 24.4559C48.6134 24.3812 48.576 24.2852 48.576 24.1679V23.0799C48.576 22.9626 48.6134 22.8666 48.688 22.7919C48.7627 22.7172 48.8587 22.6799 48.976 22.6799H50.224V20.0399C50.224 19.9226 50.2614 19.8266 50.336 19.7519C50.4214 19.6772 50.5174 19.6399 50.624 19.6399H52.192C52.3094 19.6399 52.4054 19.6772 52.48 19.7519C52.5547 19.8266 52.592 19.9226 52.592 20.0399V22.6799H54.592C54.6987 22.6799 54.7894 22.7172 54.864 22.7919C54.9387 22.8666 54.976 22.9626 54.976 23.0799V24.1679C54.976 24.2852 54.9387 24.3812 54.864 24.4559C54.7894 24.5306 54.6987 24.5679 54.592 24.5679H52.592V27.7359C52.592 28.1412 52.6614 28.4612 52.8 28.6959C52.9494 28.9199 53.2054 29.0319 53.568 29.0319H54.736C54.8427 29.0319 54.9334 29.0692 55.008 29.1439C55.0827 29.2186 55.12 29.3092 55.12 29.4159V30.5999C55.12 30.7172 55.0827 30.8132 55.008 30.8879C54.9334 30.9626 54.8427 30.9999 54.736 30.9999H53.344Z" fill="#AE8BF8"/>
</g>
<defs>
<clipPath id="clip0_337_346">
<rect width="56" height="32" fill="white"/>
</clipPath>
</defs>
</svg>
