<svg width="30" height="16" viewBox="0 0 30 16" fill="none" xmlns="http://www.w3.org/2000/svg">
<path d="M4.496 12C4.37867 12 4.28267 11.9627 4.208 11.888C4.13333 11.8133 4.096 11.7173 4.096 11.6V8.08L0.352 1.312C0.341333 1.28 0.330667 1.25333 0.32 1.232C0.309333 1.2 0.304 1.168 0.304 1.136C0.304 1.05067 0.336 0.976 0.4 0.912C0.474667 0.837333 0.554667 0.799999 0.64 0.799999H2.336C2.48533 0.799999 2.60267 0.837333 2.688 0.912C2.77333 0.986666 2.832 1.056 2.864 1.12L5.376 5.52L7.888 1.12C7.92 1.056 7.97867 0.986666 8.064 0.912C8.14933 0.837333 8.26667 0.799999 8.416 0.799999H10.112C10.1973 0.799999 10.272 0.837333 10.336 0.912C10.4107 0.976 10.448 1.05067 10.448 1.136C10.448 1.168 10.4427 1.2 10.432 1.232C10.4213 1.25333 10.4107 1.28 10.4 1.312L6.656 8.08V11.6C6.656 11.7173 6.61867 11.8133 6.544 11.888C6.46933 11.9627 6.37333 12 6.256 12H4.496ZM13.7984 12.16C13.1797 12.16 12.6304 12.0213 12.1504 11.744C11.681 11.456 11.313 11.0453 11.0464 10.512C10.7904 9.968 10.6624 9.312 10.6624 8.544V4.08C10.6624 3.96267 10.6997 3.86667 10.7744 3.792C10.849 3.71733 10.9397 3.68 11.0464 3.68H12.7424C12.8597 3.68 12.9557 3.71733 13.0304 3.792C13.105 3.86667 13.1424 3.96267 13.1424 4.08V8.448C13.1424 9.64267 13.665 10.24 14.7104 10.24C15.2117 10.24 15.6064 10.0853 15.8944 9.776C16.193 9.456 16.3424 9.01333 16.3424 8.448V4.08C16.3424 3.96267 16.3797 3.86667 16.4544 3.792C16.529 3.71733 16.625 3.68 16.7424 3.68H18.4384C18.545 3.68 18.6357 3.71733 18.7104 3.792C18.785 3.86667 18.8224 3.96267 18.8224 4.08V11.6C18.8224 11.7173 18.785 11.8133 18.7104 11.888C18.6357 11.9627 18.545 12 18.4384 12H16.8704C16.753 12 16.657 11.9627 16.5824 11.888C16.5077 11.8133 16.4704 11.7173 16.4704 11.6V10.976C16.193 11.36 15.8357 11.6533 15.3984 11.856C14.961 12.0587 14.4277 12.16 13.7984 12.16ZM21.2361 15.04C21.1188 15.04 21.0228 15.0027 20.9481 14.928C20.8735 14.8533 20.8361 14.7573 20.8361 14.64V4.08C20.8361 3.96267 20.8735 3.86667 20.9481 3.792C21.0228 3.71733 21.1188 3.68 21.2361 3.68H22.7561C22.8735 3.68 22.9695 3.71733 23.0441 3.792C23.1188 3.86667 23.1561 3.96267 23.1561 4.08V4.688C23.4121 4.34667 23.7428 4.06933 24.1481 3.856C24.5535 3.632 25.0601 3.52 25.6681 3.52C26.2228 3.52 26.7028 3.61067 27.1081 3.792C27.5241 3.96267 27.8708 4.21333 28.1481 4.544C28.4361 4.864 28.6548 5.25333 28.8041 5.712C28.9641 6.17067 29.0548 6.688 29.0761 7.264C29.0868 7.46667 29.0921 7.65867 29.0921 7.84C29.0921 8.02133 29.0868 8.21867 29.0761 8.432C29.0655 8.976 28.9801 9.47733 28.8201 9.936C28.6708 10.3947 28.4521 10.7893 28.1641 11.12C27.8761 11.4507 27.5241 11.7067 27.1081 11.888C26.7028 12.0693 26.2228 12.16 25.6681 12.16C25.1241 12.16 24.6495 12.064 24.2441 11.872C23.8495 11.6693 23.5241 11.3973 23.2681 11.056V14.64C23.2681 14.7573 23.2308 14.8533 23.1561 14.928C23.0815 15.0027 22.9908 15.04 22.8841 15.04H21.2361ZM24.9481 10.24C25.3535 10.24 25.6735 10.1547 25.9081 9.984C26.1428 9.80267 26.3081 9.568 26.4041 9.28C26.5108 8.992 26.5748 8.67733 26.5961 8.336C26.6175 8.00533 26.6175 7.67467 26.5961 7.344C26.5748 7.00267 26.5108 6.688 26.4041 6.4C26.3081 6.112 26.1428 5.88267 25.9081 5.712C25.6735 5.53067 25.3535 5.44 24.9481 5.44C24.5535 5.44 24.2335 5.53067 23.9881 5.712C23.7428 5.89333 23.5668 6.12267 23.4601 6.4C23.3535 6.67733 23.2895 6.976 23.2681 7.296C23.2575 7.488 23.2521 7.68533 23.2521 7.888C23.2521 8.09067 23.2575 8.29333 23.2681 8.496C23.2788 8.79467 23.3428 9.07733 23.4601 9.344C23.5881 9.6 23.7695 9.81333 24.0041 9.984C24.2495 10.1547 24.5641 10.24 24.9481 10.24Z" fill="#ECECEC"/>
</svg>
