<svg width="30" height="16" viewBox="0 0 30 16" fill="none" xmlns="http://www.w3.org/2000/svg">
<g clip-path="url(#clip0_337_348)">
<path d="M4.49595 12C4.37862 12 4.28263 11.9627 4.20796 11.888C4.13329 11.8133 4.09596 11.7173 4.09596 11.6V8.08005L0.351955 1.31205C0.341288 1.28005 0.330622 1.25338 0.319955 1.23205C0.309288 1.20005 0.303955 1.16805 0.303955 1.13605C0.303955 1.05072 0.335955 0.97605 0.399955 0.91205C0.474622 0.837383 0.554622 0.800049 0.639955 0.800049H2.33596C2.48529 0.800049 2.60263 0.837383 2.68796 0.91205C2.77329 0.986716 2.83196 1.05605 2.86396 1.12005L5.37596 5.52005L7.88796 1.12005C7.91996 1.05605 7.97863 0.986716 8.06396 0.91205C8.14929 0.837383 8.26663 0.800049 8.41596 0.800049H10.112C10.1973 0.800049 10.272 0.837383 10.336 0.91205C10.4107 0.97605 10.448 1.05072 10.448 1.13605C10.448 1.16805 10.4427 1.20005 10.432 1.23205C10.4213 1.25338 10.4107 1.28005 10.4 1.31205L6.65596 8.08005V11.6C6.65596 11.7173 6.61863 11.8133 6.54396 11.888C6.46929 11.9627 6.37329 12 6.25596 12H4.49595ZM13.7984 12.16C13.1797 12.16 12.6304 12.0214 12.1504 11.7441C11.681 11.4561 11.313 11.0453 11.0464 10.512C10.7904 9.96805 10.6624 9.31205 10.6624 8.54405V4.08005C10.6624 3.96272 10.6997 3.86672 10.7744 3.79205C10.849 3.71738 10.9397 3.68005 11.0464 3.68005H12.7424C12.8597 3.68005 12.9557 3.71738 13.0304 3.79205C13.105 3.86672 13.1424 3.96272 13.1424 4.08005V8.44805C13.1424 9.64272 13.665 10.24 14.7104 10.24C15.2117 10.24 15.6064 10.0853 15.8944 9.77605C16.193 9.45605 16.3424 9.01338 16.3424 8.44805V4.08005C16.3424 3.96272 16.3797 3.86672 16.4544 3.79205C16.529 3.71738 16.625 3.68005 16.7424 3.68005H18.4384C18.545 3.68005 18.6357 3.71738 18.7104 3.79205C18.785 3.86672 18.8224 3.96272 18.8224 4.08005V11.6C18.8224 11.7173 18.785 11.8133 18.7104 11.888C18.6357 11.9627 18.545 12 18.4384 12H16.8704C16.753 12 16.657 11.9627 16.5824 11.888C16.5077 11.8133 16.4704 11.7173 16.4704 11.6V10.976C16.193 11.36 15.8357 11.6533 15.3984 11.856C14.961 12.0587 14.4277 12.16 13.7984 12.16ZM21.2361 15.04C21.1188 15.04 21.0228 15.0028 20.9481 14.9281C20.8735 14.8534 20.8361 14.7573 20.8361 14.64V4.08005C20.8361 3.96272 20.8735 3.86672 20.9481 3.79205C21.0228 3.71738 21.1188 3.68005 21.2361 3.68005H22.7561C22.8735 3.68005 22.9695 3.71738 23.0441 3.79205C23.1188 3.86672 23.1561 3.96272 23.1561 4.08005V4.68805C23.4121 4.34672 23.7428 4.06938 24.1481 3.85605C24.5535 3.63205 25.0601 3.52005 25.6681 3.52005C26.2228 3.52005 26.7028 3.61072 27.1081 3.79205C27.5241 3.96272 27.8708 4.21338 28.1481 4.54405C28.4361 4.86405 28.6548 5.25338 28.8041 5.71205C28.9641 6.17072 29.0548 6.68805 29.0761 7.26405C29.0868 7.46672 29.0921 7.65872 29.0921 7.84005C29.0921 8.02138 29.0868 8.21872 29.0761 8.43205C29.0655 8.97605 28.9801 9.47738 28.8201 9.93605C28.6708 10.3947 28.4521 10.7893 28.1641 11.12C27.8761 11.4507 27.5241 11.7067 27.1081 11.888C26.7028 12.0693 26.2228 12.16 25.6681 12.16C25.1241 12.16 24.6495 12.064 24.2441 11.872C23.8495 11.6693 23.5241 11.3973 23.2681 11.056V14.64C23.2681 14.7573 23.2308 14.8534 23.1561 14.9281C23.0815 15.0028 22.9908 15.04 22.8841 15.04H21.2361ZM24.9481 10.24C25.3535 10.24 25.6735 10.1547 25.9081 9.98405C26.1428 9.80272 26.3081 9.56805 26.4041 9.28005C26.5108 8.99205 26.5748 8.67738 26.5961 8.33605C26.6175 8.00538 26.6175 7.67472 26.5961 7.34405C26.5748 7.00272 26.5108 6.68805 26.4041 6.40005C26.3081 6.11205 26.1428 5.88272 25.9081 5.71205C25.6735 5.53072 25.3535 5.44005 24.9481 5.44005C24.5535 5.44005 24.2335 5.53072 23.9881 5.71205C23.7428 5.89338 23.5668 6.12272 23.4601 6.40005C23.3535 6.67738 23.2895 6.97605 23.2681 7.29605C23.2575 7.48805 23.2521 7.68538 23.2521 7.88805C23.2521 8.09072 23.2575 8.29338 23.2681 8.49605C23.2788 8.79472 23.3428 9.07738 23.4601 9.34405C23.5881 9.60005 23.7695 9.81338 24.0041 9.98405C24.2495 10.1547 24.5641 10.24 24.9481 10.24Z" fill="#AE8BF8"/>
</g>
<defs>
<clipPath id="clip0_337_348">
<rect width="30" height="16" fill="white"/>
</clipPath>
</defs>
</svg>
